<?xml version="1.0" encoding="UTF-8"?>
<svg width="571px" height="694px" viewBox="0 0 571 694" version="1.1" xmlns="http://www.w3.org/2000/svg" xmlns:xlink="http://www.w3.org/1999/xlink">
    <title>portrait-beautiful-young-asian-woman-relax-smile-swing-around-beach-sea-ocean-nature-travel-vacation copy 2@1</title>
    <defs>
        <path d="M570.439453,0 L570.793156,27.7092415 C570.905944,36.5450776 563.834516,43.7993706 554.99868,43.9121584 C554.93061,43.9130273 554.862535,43.9134618 554.79446,43.9134618 L420.676817,43.9134618 C411.840261,43.9134618 404.676817,51.0769058 404.676817,59.9134618 L404.676817,92.7125943 C404.676817,101.54915 411.840261,108.712594 420.676817,108.712594 L555,108.712594 C563.836556,108.707824 571,115.871268 571,124.707824 C571,124.709414 571,124.711005 570.995229,124.712594 L570.82548,694 L570.82548,694 L3.99999998,693.945658 C1.79086068,693.948671 0.000171382708,692.157638 0.000383175405,689.948499 C0.000383278512,689.947424 0.000383815359,689.946348 0.00360990298,689.945276 L0.622259539,4.44277104 C0.624250849,2.23627459 2.4126056,0.448122918 4.61910226,0.446382188" id="path-1"></path>
    </defs>
    <g id="Page-1" stroke="none" stroke-width="1" fill="none" fill-rule="evenodd">
        <g id="portrait-beautiful-young-asian-woman-relax-smile-swing-around-beach-sea-ocean-nature-travel-vacation-copy-2">
            <mask id="mask-2" fill="white">
                <use xlink:href="#path-1"></use>
            </mask>
            <use id="Mask" fill="#D8D8D8" transform="translate(285.500000, 347.000000) scale(-1, 1) translate(-285.500000, -347.000000) " xlink:href="#path-1"></use>
        </g>
    </g>
</svg>