<svg width="17" height="16" viewBox="0 0 17 16" xmlns="http://www.w3.org/2000/svg">
    <path d="M3.943 0c.184 0 .333.15.333.333V2h1.667c.184 0 .333.15.333.333v1.334a.332.332 0 0 1-.017.105l-.52 1.561h.204c.184 0 .333.15.333.334v5H9.61v-1c0-.184.149-.334.333-.334h4c.184 0 .333.15.333.334v1h1.667c.184 0 .333.149.333.333v4.667c0 .184-.15.333-.333.333h-1v-3.667A.333.333 0 0 0 14.61 12h-2a.333.333 0 0 0-.334.333V16h-11a.333.333 0 0 1-.333-.333V11c0-.184.15-.333.333-.333h.334v-5c0-.184.149-.334.333-.334h.204l-.52-1.561a.332.332 0 0 1-.017-.105V2.333c0-.184.149-.333.333-.333H3.61V.333C3.61.15 3.759 0 3.943 0zm0 12H2.61a.333.333 0 0 0-.334.333v1.334c0 .184.15.333.334.333h1.333c.184 0 .333-.15.333-.333v-1.334A.333.333 0 0 0 3.943 12zm3.333 0H5.943a.333.333 0 0 0-.333.333v1.334c0 .184.149.333.333.333h1.333c.184 0 .334-.15.334-.333v-1.334A.333.333 0 0 0 7.276 12zm3.334 0H9.276a.333.333 0 0 0-.333.333v1.334c0 .184.15.333.333.333h1.334c.184 0 .333-.15.333-.333v-1.334A.333.333 0 0 0 10.61 12zm-6-5.333H3.276A.333.333 0 0 0 2.943 7v1.333c0 .184.15.334.333.334H4.61c.184 0 .333-.15.333-.334V7a.333.333 0 0 0-.333-.333zm5.644-4.028.217.008c.5.037.982.205 1.41.49l1.169.611.056-.033 1.889-.888c.57-.277 1.15-.231 1.696.143.157.108.251.289.252.484a.585.585 0 0 1-.244.485l-6.605 3.358a.717.717 0 0 1-.358.085c-.843 0-2.372-1.214-2.67-1.457a.333.333 0 0 1 .21-.592h.689c.06.004.144.024.478.105.29.071.875.214 1.077.233l1.633-.848-2.075-1.556a.332.332 0 0 1 .19-.6l.986-.028zm-5.644.694H3.276a.333.333 0 0 0 0 .667H4.61a.333.333 0 0 0 0-.667z" fill="#CDCDCD" fill-rule="evenodd"/>
</svg>
