<svg width="20" height="20" viewBox="0 0 20 20" xmlns="http://www.w3.org/2000/svg">
    <g fill="#05A580" fill-rule="nonzero">
        <path d="M12.578 1.523c0-.193.158-.351.352-.351h2.03c.195 0 .352.158.352.351v2.095h1.172V1.523c0-.84-.683-1.523-1.523-1.523H12.93c-.84 0-1.524.683-1.524 1.523v2.095h1.172V1.523zM7.123 18.828a2.523 2.523 0 0 1-.404-1.367V8.676H1.367C.613 8.676 0 9.29 0 10.044v7.417c0 .688.51 1.258 1.172 1.353v.6a.586.586 0 0 0 1.172 0v-.586h4.779zm-4.78-8.003a.586.586 0 0 1 1.173 0v5.855a.586.586 0 0 1-1.172 0v-5.855zM5.469 6.582c0-.194.157-.351.351-.351h.899v-.074c0-.393.09-.766.25-1.098H5.82c-.84 0-1.523.683-1.523 1.523v.923h1.172v-.923zM18.633 4.79H9.258c-.754 0-1.367.613-1.367 1.367V17.46c0 .688.51 1.258 1.171 1.353v.6a.586.586 0 0 0 1.172 0v-.586h7.422v.586a.586.586 0 0 0 1.172 0v-.6A1.37 1.37 0 0 0 20 17.461V6.157c0-.754-.613-1.367-1.367-1.367zm-7.227 11.89a.586.586 0 0 1-1.172 0V6.938a.586.586 0 0 1 1.172 0v9.742zm5.664.586a.586.586 0 0 1-.586-.586V6.938a.586.586 0 0 1 1.172 0v9.742a.586.586 0 0 1-.586.586z"/>
    </g>
</svg>
