<svg width="404" height="120" viewBox="0 0 404 120" xmlns="http://www.w3.org/2000/svg">
    <g fill="#1E2A46" fill-rule="evenodd">
        <path d="M53.095 117.53h-12a1 1 0 1 0 0 2h12a1 1 0 1 0 0-2m20 0h-12a1 1 0 1 0 0 2h12a1 1 0 1 0 0-2m20 0h-12a1 1 0 1 0 0 2h12a1 1 0 1 0 0-2m20 0h-12a1 1 0 1 0 0 2h12a1 1 0 1 0 0-2m20 0h-12a1 1 0 1 0 0 2h12a1 1 0 1 0 0-2m20 0h-12a1 1 0 1 0 0 2h12a1 1 0 1 0 0-2m20 0h-12a1 1 0 1 0 0 2h12a1 1 0 1 0 0-2m20 0h-12a1 1 0 1 0 0 2h12a1 1 0 1 0 0-2M21.1 117.4a1 1 0 0 0-.109 1.993c.821.09 1.66.136 2.495.136h9.61a1 1 0 1 0 0-2h-9.609c-.763 0-1.529-.042-2.277-.124a1.028 1.028 0 0 0-.11-.006m213-1.378h-12a1 1 0 1 0 0 2h12a1 1 0 1 0 0-2m19.996-.349h-12a1 1 0 1 0 0 2h12a1 1 0 1 0 0-2m19.997-.349h-12a1 1 0 1 0 0 2h12a1 1 0 1 0 0-2m19.997-.349h-12a1 1 0 1 0 0 2h12a1 1 0 1 0 0-2m19.997-.349h-12a1 1 0 1 0 0 2h12a1 1 0 1 0 0-2m19.997-.349h-12a1 1 0 1 0 0 2h12a1 1 0 1 0 0-2m19.997-.349h-12a1 1 0 1 0 0 2h12a1 1 0 1 0 0-2m19.997-.35h-12a1 1 0 1 0 0 2h12a1 1 0 1 0 0-2m22-42v12a1 1 0 1 0 2 0v-12a1 1 0 1 0-2 0m0-19v12a1 1 0 1 0 2 0v-12a1 1 0 1 0-2 0m0-19v12a1 1 0 1 0 2 0v-12a1 1 0 1 0-2 0m0-17v12a1 1 0 1 0 2 0v-12a1 1 0 1 0-2 0m-193.97 99.663a1 1 0 0 0-.11 1.994c.822.09 1.66.136 2.496.136h9.609a1 1 0 1 0 0-2h-9.608c-.763 0-1.53-.042-2.277-.124a1.028 1.028 0 0 0-.11-.006m189.004-8.788a.995.995 0 0 0-.733.321 20.649 20.649 0 0 1-9.65 5.876.999.999 0 1 0 .532 1.927 22.616 22.616 0 0 0 10.584-6.444 1 1 0 0 0-.733-1.68m-386.233-.496a1 1 0 0 0-.857 1.512 22.706 22.706 0 0 0 9.01 8.508.998.998 0 1 0 .923-1.773 20.72 20.72 0 0 1-8.216-7.76 1 1 0 0 0-.86-.487m392.003-18.032a1 1 0 0 0-1 1v3.812a20.563 20.563 0 0 1-1.453 7.624 1.002 1.002 0 0 0 1.86.738 22.585 22.585 0 0 0 1.593-8.361v-3.813a1 1 0 0 0-1-1M1.834 87.51a1 1 0 0 0-1 1v8.367c0 1.271.106 2.544.315 3.781a.994.994 0 0 0 1.152.82 1 1 0 0 0 .82-1.153 20.819 20.819 0 0 1-.287-3.448V88.51a1 1 0 0 0-1-1M403.755 7.344a6.49 6.49 0 1 0-12.977-.225 6.49 6.49 0 0 0 12.977.225"/>
    </g>
</svg>
