<svg width="219" height="123" viewBox="0 0 219 123" xmlns="http://www.w3.org/2000/svg">
    <defs>
        <linearGradient x1="50%" y1="0%" x2="50%" y2="100%" id="rc7xtysaja">
            <stop stop-color="#FFB548" offset="0%"/>
            <stop stop-color="#FFC84E" offset="100%"/>
        </linearGradient>
    </defs>
    <g fill="none" fill-rule="evenodd">
        <path d="M48.265 115.392h-12a1 1 0 1 0 0 2h12a1 1 0 1 0 0-2M68.262 115.043h-12a1 1 0 1 0 0 2h12a1 1 0 1 0 0-2M88.26 114.694h-12a1 1 0 1 0 0 2h12a1 1 0 1 0 0-2M108.256 114.345h-12a1 1 0 1 0 0 2h12a1 1 0 1 0 0-2M128.253 113.996h-12a1 1 0 1 0 0 2h12a1 1 0 1 0 0-2M148.25 113.647h-12a1 1 0 1 0 0 2h12a1 1 0 1 0 0-2M168.247 113.298h-12a1 1 0 1 0 0 2h12a1 1 0 1 0 0-2M188.244 112.949h-12a1 1 0 1 0 0 2h12a1 1 0 1 0 0-2M210.244 70.949v12a1 1 0 1 0 2 0v-12a1 1 0 1 0-2 0M210.244 51.949v12a1 1 0 1 0 2 0v-12a1 1 0 1 0-2 0M210.244 32.949v12a1 1 0 1 0 2 0v-12a1 1 0 1 0-2 0M210.244 15.949v12a1 1 0 1 0 2 0v-12a1 1 0 1 0-2 0M16.273 115.611a1 1 0 0 0-.109 1.994c.821.09 1.66.136 2.495.136h9.61a1 1 0 1 0 0-2H18.66c-.763 0-1.529-.042-2.277-.124a1.028 1.028 0 0 0-.11-.006M205.278 106.823a.995.995 0 0 0-.733.32 20.649 20.649 0 0 1-9.65 5.877.999.999 0 1 0 .532 1.927 22.616 22.616 0 0 0 10.584-6.444 1 1 0 0 0-.733-1.68M211.048 88.295a1 1 0 0 0-1 1v3.812a20.563 20.563 0 0 1-1.453 7.624 1.002 1.002 0 0 0 1.86.738 22.585 22.585 0 0 0 1.593-8.361v-3.813a1 1 0 0 0-1-1" fill="#1E2A46"/>
        <path d="M217.091 6.601a6.49 6.49 0 1 1-12.979-.001 6.49 6.49 0 0 1 12.98.001" fill="url(#rc7xtysaja)" transform="scale(1 -1) rotate(-1 -545.414 -47.57)"/>
        <path d="M13.091 115.601A6.49 6.49 0 1 1 .112 115.6a6.49 6.49 0 0 1 12.98.001" fill="url(#rc7xtysaja)" transform="scale(1 -1) rotate(-1 -13239.576 -47.57)"/>
    </g>
</svg>
