<svg width="32" height="32" viewBox="0 0 32 32" xmlns="http://www.w3.org/2000/svg">
    <defs>
        <linearGradient x1="50%" y1="0%" x2="50%" y2="100%" id="h2es06rsza">
            <stop stop-color="#FFB548" offset="0%"/>
            <stop stop-color="#FFC84E" offset="100%"/>
        </linearGradient>
    </defs>
    <g fill-rule="nonzero" fill="none">
        <path d="M27.587 19.92c-.774.48-1.507.854-2.16 1.12-.454.2-.947.294-1.427.294-.48 0-.973-.094-1.427-.294-1.16-.48-2.573-1.28-3.946-2.373H5.893l1.974-4.533c.213-.48.693-.8 1.213-.8h5.253a10.9 10.9 0 0 1-.826-2.667H9.08a4.016 4.016 0 0 0-3.667 2.4l-2.64 6.067c-.013.026 0 .053-.013.093C1.133 20.054 0 21.72 0 23.667v5a3.335 3.335 0 0 0 6.667 0V28h16v.667a3.335 3.335 0 0 0 6.666 0v-5c0-1.507-.68-2.853-1.746-3.747zM8 25.333H5.333C4.6 25.333 4 24.733 4 24s.6-1.333 1.333-1.333H8c.733 0 1.333.6 1.333 1.333s-.6 1.333-1.333 1.333zm16 0h-2.667C20.6 25.333 20 24.733 20 24s.6-1.333 1.333-1.333H24c.733 0 1.333.6 1.333 1.333s-.6 1.333-1.333 1.333z" fill="url(#h2es06rsza)"/>
        <path d="m31.321 2.435-7-2.381a.983.983 0 0 0-.642 0l-7 2.381a.998.998 0 0 0-.679.947v5.357c0 6.539 7.299 9.717 7.61 9.85.25.105.53.105.78 0 .311-.133 7.61-3.311 7.61-9.85V3.382a.998.998 0 0 0-.679-.947zm-2.94 5.056-3.666 4.667a1.333 1.333 0 0 1-1.915.19l-2.333-2a1.333 1.333 0 1 1 1.735-2.024l1.277 1.094 2.806-3.572a1.331 1.331 0 0 1 1.872-.224c.579.452.68 1.29.224 1.87z" fill="#05A580"/>
    </g>
</svg>
