<svg width="22" height="20" viewBox="0 0 22 20" xmlns="http://www.w3.org/2000/svg">
    <g fill-rule="nonzero" fill="none">
        <path d="M8.694 17.996a.477.477 0 0 1-.412-.238c-1.588-2.723-5.822-8.523-5.864-8.58a.484.484 0 0 1 .049-.628l1.302-1.295a.475.475 0 0 1 .61-.052l4.215 2.963c2.821-3.642 5.442-6.158 7.166-7.643C17.701.852 18.937.1 18.988.07A.475.475 0 0 1 19.234 0h2.106a.483.483 0 0 1 .318.84C15.678 6.203 9.174 17.638 9.109 17.753a.478.478 0 0 1-.412.243h-.003z" fill="#05A580"/>
        <path d="M8.602 20C3.859 20 0 16.115 0 11.34s3.859-8.66 8.602-8.66a8.533 8.533 0 0 1 2.795.468.482.482 0 0 1-.31.91 7.586 7.586 0 0 0-2.485-.416C4.385 3.642.955 7.095.955 11.34c0 4.245 3.43 7.698 7.647 7.698 4.216 0 7.646-3.453 7.646-7.698 0-.52-.052-1.04-.155-1.55a.483.483 0 0 1 .151-.457.476.476 0 0 1 .785.264c.117.573.175 1.157.175 1.743 0 4.775-3.859 8.66-8.602 8.66z" fill="#FFF"/>
    </g>
</svg>
