<svg width="66" height="27" viewBox="0 0 66 27" xmlns="http://www.w3.org/2000/svg">
    <g fill="#05A580" fill-rule="nonzero">
        <path d="M53.755 15.972c2.665.093 4.75 2.35 4.656 5.043a4.784 4.784 0 0 1-.064.61c-.383 2.393-2.473 4.18-4.932 4.095-2.526-.088-4.528-2.121-4.651-4.626a5.18 5.18 0 0 1-.005-.417c.093-2.692 2.33-4.799 4.996-4.705zm2.31 3.122-1.02.96c.073.135.128.28.161.434l1.387.048a3.029 3.029 0 0 0-.529-1.442zm.505 2.287-1.398-.05a1.644 1.644 0 0 1-.19.418l.952 1.03c.32-.394.542-.872.636-1.398zm-2.674 2.508a2.993 2.993 0 0 0 1.42-.538l-.946-1.026a1.653 1.653 0 0 1-.425.157l-.049 1.407zm.162-4.65c.15.046.291.111.42.195l1.018-.959a2.985 2.985 0 0 0-1.389-.638l-.049 1.403zm-.786-1.432a2.99 2.99 0 0 0-1.43.54l.947 1.027c.135-.074.28-.13.433-.164l.05-1.403zm-.212 6.052.05-1.405a1.64 1.64 0 0 1-.413-.187l-1.016.957c.391.32.86.543 1.38.635zm-1.957-1.244 1.025-.967a1.657 1.657 0 0 1-.165-.428l-1.387-.048a3.06 3.06 0 0 0 .527 1.443zm.887-2.24c.045-.15.11-.292.19-.421l-.95-1.029a3.061 3.061 0 0 0-.627 1.403l1.387.048zM13.679 14.572c2.665.093 4.75 2.35 4.656 5.043a4.784 4.784 0 0 1-.064.611c-.383 2.393-2.473 4.18-4.931 4.094-2.526-.088-4.528-2.12-4.652-4.626a5.18 5.18 0 0 1-.005-.416c.092-2.692 2.33-4.799 4.996-4.706zm2.31 3.122-1.018.96c.071.135.127.28.16.435l1.387.048a3.036 3.036 0 0 0-.53-1.443zm.505 2.287-1.398-.049a1.644 1.644 0 0 1-.19.417l.95 1.03c.322-.394.545-.871.638-1.398zM13.82 22.49a2.993 2.993 0 0 0 1.42-.538l-.946-1.026a1.653 1.653 0 0 1-.425.157l-.049 1.407zm.163-4.65c.15.046.29.11.42.194l1.018-.958a2.982 2.982 0 0 0-1.39-.638l-.048 1.402zm-.788-1.433a2.99 2.99 0 0 0-1.43.54l.949 1.028c.134-.075.28-.13.432-.165l.05-1.403zm-.21 6.052.048-1.405a1.64 1.64 0 0 1-.412-.187l-1.016.958c.391.32.86.542 1.38.634zm-1.958-1.244 1.025-.965a1.638 1.638 0 0 1-.165-.428l-1.387-.049c.055.53.235 1.025.527 1.442zm.887-2.239c.045-.151.109-.292.19-.422l-.949-1.028c-.32.397-.537.874-.628 1.402l1.387.049z"/>
        <path d="m2.178 11.644.126-3.607c.02-.58.455-1.058 1.025-1.127 1.37-.168 3.798-.49 4.894-.79 1.572-.43 7.67-2.79 9.767-3.2 2.097-.409 11.57-2.657 20.447.803 1.502.585 8.228 4.127 12.19 5.985 1.184.067 12.823 2.946 13.389 4.66.565 1.714.732 2.542.832 2.975.1.434-.087 2.485-1.008 3.886-.906.477-2.627.758-4.611.917.027-.121.055-.24.075-.363.044-.263.068-.503.076-.733.113-3.228-2.395-5.945-5.591-6.057-3.197-.112-5.888 2.424-6 5.652a5.752 5.752 0 0 0 .158 1.552h-.016l-28.75-1.59c.016-.074.035-.148.047-.224a5.65 5.65 0 0 0 .076-.732c.113-3.228-2.394-5.945-5.591-6.057-3.197-.111-5.888 2.423-6.001 5.652v.034l-.122-.014-4.886-1.107S.855 17.079.953 14.292c.064-1.859 1.225-2.648 1.225-2.648zM30.837 9.22l10.733.707c-.141-1.633.825-1.964.825-1.964-4.135-4.065-12.739-4.499-12.739-4.499l1.18 5.756zm-12.042-.918 9.78.674-.694-5.573c-5.058-.243-7.988.784-7.988.784l-1.528 2.306.43 1.809zm-5.518-.227 2.728.095 2.86-3.687a51.424 51.424 0 0 0-4.735 1.983c-.603.29-.95.942-.853 1.61z"/>
    </g>
</svg>
