<svg width="24" height="20" viewBox="0 0 24 20" xmlns="http://www.w3.org/2000/svg">
    <defs>
        <linearGradient x1="50%" y1="0%" x2="50%" y2="100%" id="g7juzjypya">
            <stop stop-color="#FFB548" offset="0%"/>
            <stop stop-color="#FFC84E" offset="100%"/>
        </linearGradient>
    </defs>
    <g fill-rule="nonzero" fill="none">
        <path d="M23.19 16.198 13.903 1.202A2.509 2.509 0 0 0 11.77 0a2.508 2.508 0 0 0-2.138 1.194L.33 16.215a2.548 2.548 0 0 0 0 2.509A2.51 2.51 0 0 0 2.474 20h18.582a2.51 2.51 0 0 0 2.148-1.285 2.548 2.548 0 0 0-.014-2.517z" fill="url(#g7juzjypya)"/>
        <path d="m11.007 12.16-.22-3.325c-.044-.67-.27-1.75.237-2.294.386-.418 1.3-.49 1.577.09.236.68.288 1.412.15 2.12l-.295 3.423a2.71 2.71 0 0 1-.206.936.587.587 0 0 1-1.041.011 3.167 3.167 0 0 1-.202-.961zm.765 4.568a1.033 1.033 0 0 1-1.022-.978 1.035 1.035 0 0 1 .904-1.088c.38-.047.755.124.972.442.217.318.24.731.06 1.072-.178.342-.531.554-.914.552z" fill="#FFF"/>
    </g>
</svg>
