<svg width="20" height="18" viewBox="0 0 20 18" xmlns="http://www.w3.org/2000/svg">
    <path d="M18.35 3.607c0 1.577-1.06 2.97-2.61 3.432A5.6 5.6 0 0 0 16 5.347C16 3.293 14.887 1.39 13.07.34A3.856 3.856 0 0 1 14.65 0c2.046.003 3.702 1.618 3.7 3.607zM17.6 8.07a1.687 1.687 0 0 0-1.25.145c-.428.23-.902.367-1.39.399a4.99 4.99 0 0 1-.7.826c1.926.617 3.337 2.225 3.66 4.171h.69c.451.006.87-.229 1.09-.612.198-.362.302-.766.3-1.177v-.69c0-1.449-.99-2.703-2.4-3.062zM6.93.34A3.856 3.856 0 0 0 5.35 0C3.519.001 1.964 1.303 1.691 3.064c-.272 1.76.82 3.45 2.57 3.975A5.6 5.6 0 0 1 4 5.347C4 3.293 5.113 1.39 6.93.34zm-1.19 9.1a4.99 4.99 0 0 1-.7-.826 3.398 3.398 0 0 1-1.39-.399c-.38-.207-.83-.26-1.25-.146A3.166 3.166 0 0 0 0 11.132v.69c-.002.41.102.815.3 1.177a1.23 1.23 0 0 0 1.08.612h.7c.322-1.946 1.734-3.555 3.66-4.17zm7.84 1.323a2.076 2.076 0 0 0-1.52.185 4.375 4.375 0 0 1-4.12 0 2.076 2.076 0 0 0-1.52-.185c-1.728.455-2.926 1.982-2.92 3.723v.846c0 .496.127.983.37 1.42.25.466.75.748 1.31.748h9.64c.56 0 1.06-.282 1.31-.749.242-.436.37-.923.37-1.42v-.845c.006-1.74-1.192-3.268-2.92-3.723zm.92-5.416c0-2.416-2.015-4.375-4.5-4.375S5.5 2.931 5.5 5.347c0 2.417 2.015 4.375 4.5 4.375s4.5-1.958 4.5-4.375z" fill="#05A580" fill-rule="nonzero"/>
</svg>
