<svg width="20" height="20" viewBox="0 0 20 20" xmlns="http://www.w3.org/2000/svg">
    <defs>
        <linearGradient x1="50%" y1="0%" x2="50%" y2="100%" id="pbod7x0b4a">
            <stop stop-color="#FFB548" offset="0%"/>
            <stop stop-color="#FFC84E" offset="100%"/>
        </linearGradient>
    </defs>
    <path d="M18.182 4.545c0 2.591-3.91 4.546-9.091 4.546C3.909 9.09 0 7.136 0 4.545 0 1.955 3.91 0 9.09 0c5.183 0 9.092 1.955 9.092 4.545zm-7.273 13.637c-3.864 0-7.164-1-9.09-2.682.054 2.573 3.936 4.5 9.09 4.5 5.155 0 9.01-1.918 9.091-4.464-1.9 1.646-5.118 2.646-9.09 2.646zm-1.818-3.637a17.036 17.036 0 0 1-6.827-1.272c1.163 1.836 4.49 3.09 8.645 3.09 5.182 0 9.091-1.954 9.091-4.545a2.727 2.727 0 0 0-.518-1.563c-1.355 2.6-5.273 4.29-10.391 4.29zM10 10.91H8.182C4.618 10.773 1.718 9.8 0 8.282c.082 2.527 3.964 4.445 9.09 4.445 5.128 0 9.01-1.918 9.092-4.463-1.755 1.518-4.655 2.49-8.182 2.645z" fill="url(#pbod7x0b4a)" fill-rule="nonzero"/>
</svg>
