<svg width="223" height="135" viewBox="0 0 223 135" xmlns="http://www.w3.org/2000/svg" xmlns:xlink="http://www.w3.org/1999/xlink">
    <defs>
        <path id="84ie3ml2qa" d="M0 0h12.979v12.978H0z"/>
    </defs>
    <g fill="none" fill-rule="evenodd">
        <path d="M52.505 2h-12a1 1 0 1 1 0-2h12a1 1 0 1 1 0 2m20 0h-12a1 1 0 1 1 0-2h12a1 1 0 1 1 0 2m20 0h-12a1 1 0 1 1 0-2h12a1 1 0 1 1 0 2m20 0h-12a1 1 0 1 1 0-2h12a1 1 0 1 1 0 2m20 0h-12a1 1 0 1 1 0-2h12a1 1 0 1 1 0 2m20 0h-12a1 1 0 1 1 0-2h12a1 1 0 1 1 0 2m20 0h-12a1 1 0 1 1 0-2h12a1 1 0 1 1 0 2m20 0h-12a1 1 0 1 1 0-2h12a1 1 0 1 1 0 2M20.51 2.13A1 1 0 0 1 20.4.136 22.98 22.98 0 0 1 22.897 0h9.609a1 1 0 1 1 0 2h-9.608c-.763 0-1.53.042-2.277.124a1.028 1.028 0 0 1-.11.006m190.039 6.806a.995.995 0 0 1-.733-.321 20.649 20.649 0 0 0-9.65-5.876.999.999 0 1 1 .532-1.927 22.616 22.616 0 0 1 10.584 6.444 1 1 0 0 1-.733 1.68M4.289 12.573a1 1 0 0 1-.857-1.512 22.706 22.706 0 0 1 9.009-8.508.998.998 0 1 1 .923 1.773 20.72 20.72 0 0 0-8.215 7.76 1 1 0 0 1-.86.487m212.03 14.891a1 1 0 0 1-1-1v-3.812a20.563 20.563 0 0 0-1.453-7.624 1.002 1.002 0 0 1 1.86-.738 22.585 22.585 0 0 1 1.593 8.361v3.813a1 1 0 0 1-1 1M1.244 32.019a1 1 0 0 1-1-1v-8.367c0-1.271.106-2.544.315-3.781a.994.994 0 0 1 1.152-.819 1 1 0 0 1 .82 1.152 20.819 20.819 0 0 0-.287 3.448v8.367a1 1 0 0 1-1 1m0 20a1 1 0 0 1-1-1v-12a1 1 0 0 1 2 0v12a1 1 0 0 1-1 1m0 20a1 1 0 0 1-1-1v-12a1 1 0 0 1 2 0v12a1 1 0 0 1-1 1m0 20a1 1 0 0 1-1-1v-12a1 1 0 0 1 2 0v12a1 1 0 0 1-1 1m0 21a1 1 0 0 1-1-1v-12a1 1 0 0 1 2 0v12a1 1 0 0 1-1 1m0 21a1 1 0 0 1-1-1v-12a1 1 0 0 1 2 0v12a1 1 0 0 1-1 1" fill="#1E2A46"/>
        <g transform="translate(209.83 30.12)">
            <mask id="jyepegrp9b" fill="#fff">
                <use xlink:href="#84ie3ml2qa"/>
            </mask>
            <path d="M12.979 6.489A6.49 6.49 0 1 1 0 6.488a6.49 6.49 0 0 1 12.979.001" fill="#1E2A46" mask="url(#jyepegrp9b)"/>
        </g>
    </g>
</svg>
