<svg width="48" height="6" viewBox="0 0 48 6" xmlns="http://www.w3.org/2000/svg">
    <g fill="#FFF" fill-rule="nonzero" opacity=".9">
        <path d="M.026 2.411c.062-.238.144-.324.417-.452.406-.189 6.09-1.444 6.52-1.44.308.003.502.18.547.501.048.34-.167.545-.683.645-1.069.204-3.366.71-3.373.743-.01.043 2.919.499 3.953.614 1.09.123 1.284.185 1.462.473.211.343.126.677-.23.882-.272.158-.617.155-1.713-.017l-.352-.056.314.215c.233.158.356.297.472.538.198.403.13.648-.23.856-.313.182-.624.109-2.164-.506-1.372-.545-1.608-.66-3.393-1.631C.077 2.966-.08 2.827.026 2.41zM9.589 3.891c.04-.307.345-.575.642-.565.123.004.614.056 1.11.12.488.059 1.29.138 1.775.174.484.037.932.1.986.142.58.446.321 1.282-.413 1.325-.365.023-3.588-.453-3.769-.555a.626.626 0 0 1-.331-.64zM15.755 4.621c-.034-.267.136-.604.386-.746.18-.103.498-.083 2.263.145 1.813.235 2.021.294 2.223.621.297.479-.004.984-.65 1.097-.245.043-.965-.033-2.553-.264-1.396-.209-1.598-.311-1.67-.853zM21.982 5.107a.933.933 0 0 1 .072-.456c.201-.406.41-.45 1.952-.403.79.023 1.629.04 1.861.036.632-.01.966.106 1.144.39.205.334.13.67-.205.918-.335.245-.922.288-2.885.212-1.584-.063-1.867-.165-1.94-.697zM29.336 4.532a.974.974 0 0 1 .232-.446c.195-.205.256-.218 2.055-.426 2.117-.245 2.451-.221 2.704.185.126.201.143.317.085.542-.133.515-.406.608-2.492.852-1.123.132-1.898.182-2.048.135-.321-.099-.58-.508-.536-.842zM36.341 3.088c.1-.383.352-.518 1.154-.62a58.784 58.784 0 0 0 1.905-.305c.7-.122 1.373-.198 1.5-.168.757.175.815 1.083.088 1.384-.25.102-2.806.525-3.708.611-.457.043-.669-.053-.884-.403-.092-.155-.11-.297-.055-.499zM43.08 1.783a.712.712 0 0 1 .243-.31c.133-.076 3.175-1.249 3.715-1.434.525-.178 1.075.281.942.79-.079.297-.195.366-1.123.647-.413.126-1.28.42-1.943.658-1.359.489-1.54.498-1.782.109-.11-.182-.12-.288-.051-.46z"/>
    </g>
</svg>
