<svg width="64" height="23" viewBox="0 0 64 23" xmlns="http://www.w3.org/2000/svg">
    <defs>
        <linearGradient x1="50%" y1="0%" x2="50%" y2="100%" id="51lstv526a">
            <stop stop-color="#FFB548" offset="0%"/>
            <stop stop-color="#FFC84E" offset="100%"/>
        </linearGradient>
        <linearGradient x1="50%" y1="0%" x2="50%" y2="100%" id="qzctzl6spb">
            <stop stop-color="#FFB548" offset="0%"/>
            <stop stop-color="#FFC84E" offset="100%"/>
        </linearGradient>
        <linearGradient x1="50%" y1="0%" x2="50%" y2="100%" id="dx5x5ykl3c">
            <stop stop-color="#FFB548" offset="0%"/>
            <stop stop-color="#FFC84E" offset="100%"/>
        </linearGradient>
    </defs>
    <g fill-rule="nonzero" fill="none">
        <path d="M11.172 13.246c-2.667 0-4.83 2.183-4.83 4.878 0 .207.017.412.043.612C6.685 21.14 8.711 23 11.171 23c2.527 0 4.6-1.962 4.81-4.461a5.18 5.18 0 0 0 .02-.416c0-2.694-2.162-4.877-4.83-4.877zm-2.417 3.04.984.994a1.693 1.693 0 0 0-.175.429H8.176c.07-.53.272-1.015.579-1.423zm-.586 2.267h1.399c.04.15.098.293.175.424l-.987.996a3.068 3.068 0 0 1-.587-1.42zm2.585 2.6a2.993 2.993 0 0 1-1.4-.587l.981-.992c.13.077.271.133.42.172v1.408zm0-4.652c-.152.04-.294.1-.427.18l-.983-.994c.404-.31.884-.515 1.41-.589v1.403zm.836-1.404a2.99 2.99 0 0 1 1.41.59l-.982.993a1.669 1.669 0 0 0-.427-.18v-1.403zm0 6.055v-1.405c.149-.04.29-.096.419-.173l.982.992a2.994 2.994 0 0 1-1.4.586zm2-1.175-.99-1.001c.077-.131.14-.272.18-.422h1.387a3.06 3.06 0 0 1-.577 1.423zm-.809-2.268a1.717 1.717 0 0 0-.175-.429l.986-.994c.304.408.505.892.578 1.423H12.78z" fill="url(#51lstv526a)"/>
        <path d="M51.272 13.246c-2.667 0-4.83 2.183-4.83 4.878 0 .207.017.412.043.612.3 2.404 2.326 4.264 4.786 4.264 2.527 0 4.599-1.962 4.81-4.461a5.18 5.18 0 0 0 .02-.416c.001-2.694-2.161-4.877-4.829-4.877zm-2.417 3.04.983.994a1.693 1.693 0 0 0-.175.429h-1.388c.072-.53.273-1.015.58-1.423zm-.585 2.267h1.399c.04.15.098.293.175.424l-.986.996a3.042 3.042 0 0 1-.588-1.42zm2.584 2.6a2.993 2.993 0 0 1-1.4-.587l.981-.992c.13.077.271.133.42.172v1.408zm0-4.652c-.152.04-.294.1-.427.18l-.983-.994c.404-.31.883-.515 1.41-.589v1.403zm.837-1.404a2.99 2.99 0 0 1 1.41.59l-.983.993a1.624 1.624 0 0 0-.427-.18v-1.403zm0 6.055v-1.405c.149-.04.29-.096.418-.173l.983.992a2.996 2.996 0 0 1-1.401.586zm1.999-1.175-.99-1c.077-.132.14-.272.18-.422h1.387a3.053 3.053 0 0 1-.577 1.422zm-.808-2.268a1.693 1.693 0 0 0-.176-.429l.985-.994c.305.408.506.892.579 1.423h-1.388z" fill="url(#qzctzl6spb)"/>
        <path d="M62.868 10.72V7.112c0-.58-.417-1.072-.985-1.162-1.363-.215-3.778-.622-4.863-.96-1.556-.484-7.568-3.055-9.65-3.538-2.082-.483-11.47-3.06-20.462.088-1.522.533-8.367 3.838-12.392 5.556-1.186.026-12.918 2.496-13.543 4.19-.625 1.693-.82 2.515-.936 2.944-.115.43 0 2.487.872 3.92.889.507 2.599.848 4.577 1.076-.023-.122-.048-.242-.063-.365a5.673 5.673 0 0 1-.05-.735c0-3.23 2.6-5.858 5.799-5.858 3.198 0 5.8 2.627 5.8 5.858 0 .166-.012.33-.024.492-.03.363-.095.715-.189 1.054h.016l28.787-.585c-.013-.075-.03-.15-.039-.226a5.65 5.65 0 0 1-.05-.735c0-3.23 2.6-5.858 5.799-5.858 3.198 0 5.8 2.627 5.8 5.858l-.002.034.123-.01 4.922-.936S64 16.199 64 13.41c0-1.86-1.132-2.69-1.132-2.69zM34.311 7.3l-10.75.332c.197-1.627-.757-1.992-.757-1.992 4.274-3.918 12.888-4.05 12.888-4.05l-1.38 5.71zm12.066-.497-9.797.332.888-5.545c5.063-.067 7.956 1.062 7.956 1.062l1.447 2.358-.494 1.793zm5.524-.034h-2.73l-2.73-3.785a51.424 51.424 0 0 1 4.663 2.147c.592.31.916.975.797 1.638z" fill="url(#dx5x5ykl3c)"/>
    </g>
</svg>
