<svg width="20" height="20" viewBox="0 0 20 20" xmlns="http://www.w3.org/2000/svg">
    <defs>
        <linearGradient x1="50%" y1="0%" x2="50%" y2="100%" id="ag3vjww6ka">
            <stop stop-color="#FFB548" offset="0%"/>
            <stop stop-color="#FFC84E" offset="100%"/>
        </linearGradient>
    </defs>
    <path d="M998.75 216c.23 0 .417.187.417.417v2.083h2.083c.23 0 .417.187.417.417v1.666c0 .045-.008.09-.022.132l-.65 1.952h.255c.23 0 .417.186.417.416v6.25h4.166v-1.25c0-.23.187-.416.417-.416h5c.23 0 .417.186.417.416v1.25h2.083c.23 0 .417.187.417.417v5.833c0 .23-.187.417-.417.417h-1.25v-4.583a.417.417 0 0 0-.417-.417h-2.5a.417.417 0 0 0-.416.417V236h-13.75a.417.417 0 0 1-.417-.417v-5.833c0-.23.187-.417.417-.417h.416v-6.25c0-.23.187-.416.417-.416h.255l-.65-1.952a.415.415 0 0 1-.022-.132v-1.666c0-.23.187-.417.417-.417h2.083v-2.083c0-.23.187-.417.417-.417zm0 15h-1.667a.417.417 0 0 0-.416.417v1.666c0 .23.186.417.416.417h1.667c.23 0 .417-.187.417-.417v-1.666a.417.417 0 0 0-.417-.417zm4.167 0h-1.667a.417.417 0 0 0-.417.417v1.666c0 .23.187.417.417.417h1.667c.23 0 .416-.187.416-.417v-1.666a.417.417 0 0 0-.416-.417zm4.166 0h-1.666a.417.417 0 0 0-.417.417v1.666c0 .23.187.417.417.417h1.666c.23 0 .417-.187.417-.417v-1.666a.417.417 0 0 0-.417-.417zm-7.5-6.667h-1.666a.417.417 0 0 0-.417.417v1.667c0 .23.187.416.417.416h1.666c.23 0 .417-.186.417-.416v-1.667a.417.417 0 0 0-.417-.417zm7.056-5.035.24.008a3.662 3.662 0 0 1 1.793.615l1.461.764.07-.042 2.362-1.11c.712-.345 1.437-.288 2.12.18.197.135.314.36.315.605a.731.731 0 0 1-.305.606l-8.256 4.198a.896.896 0 0 1-.448.105c-1.053 0-2.965-1.517-3.338-1.821a.416.416 0 0 1 .264-.74h.833c.082 0 .155.017.625.131.363.09 1.093.268 1.346.292l2.041-1.06-2.594-1.946a.415.415 0 0 1 .238-.75l1.233-.035zm-7.056.869h-1.666a.417.417 0 0 0 0 .833h1.666a.417.417 0 0 0 0-.833z" transform="translate(-995 -216)" fill="url(#ag3vjww6ka)" fill-rule="evenodd"/>
</svg>
