<svg width="40" height="40" viewBox="0 0 40 40" xmlns="http://www.w3.org/2000/svg">
    <defs>
        <linearGradient x1="50%" y1="0%" x2="50%" y2="100%" id="zfe3dkfdra">
            <stop stop-color="#FFB548" offset="0%"/>
            <stop stop-color="#FFC84E" offset="100%"/>
        </linearGradient>
    </defs>
    <g fill-rule="nonzero" fill="none">
        <path d="M18.753 1.459c.687.457 1.81.457 2.496 0L23.063.247a1.46 1.46 0 0 1 2.05.44l1.167 1.849c.441.699 1.467 1.158 2.28 1.02l2.147-.366a1.465 1.465 0 0 1 1.696 1.238l.318 2.163c.12.82.872 1.66 1.67 1.866l2.107.546a1.476 1.476 0 0 1 1.048 1.828l-.583 2.102c-.222.798.125 1.873.77 2.388l1.71 1.364c.646.515.744 1.458.219 2.096l-1.389 1.685c-.525.638-.642 1.761-.26 2.496l1.008 1.937c.381.735.09 1.637-.648 2.006l-1.95.973c-.739.368-1.3 1.347-1.249 2.173l.135 2.183a1.472 1.472 0 0 1-1.404 1.567l-2.174.093c-.823.035-1.732.7-2.02 1.476l-.756 2.049a1.464 1.464 0 0 1-1.916.858l-2.026-.805c-.766-.305-1.865-.07-2.441.522l-1.522 1.562a1.462 1.462 0 0 1-2.098 0l-1.523-1.562c-.578-.592-1.677-.826-2.443-.521l-2.025.805a1.463 1.463 0 0 1-1.915-.86l-.758-2.048c-.288-.776-1.196-1.44-2.02-1.476l-2.173-.092a1.472 1.472 0 0 1-1.404-1.568l.136-2.183c.051-.826-.51-1.805-1.249-2.173l-1.95-.973A1.477 1.477 0 0 1 .98 24.9l1.008-1.938c.382-.734.265-1.857-.261-2.495L.338 18.78a1.478 1.478 0 0 1 .218-2.096l1.711-1.364c.645-.515.992-1.589.771-2.387l-.585-2.103a1.475 1.475 0 0 1 1.048-1.826l2.108-.547C6.407 8.25 7.16 7.41 7.28 6.59l.319-2.162c.12-.82.883-1.376 1.696-1.238l2.147.366c.813.138 1.839-.321 2.28-1.02l1.165-1.85a1.46 1.46 0 0 1 2.051-.439l1.816 1.212z" fill="#05A580"/>
        <path d="M32.941 20.022c0 7.184-5.794 13.008-12.941 13.008-7.146 0-12.941-5.824-12.941-13.008 0-7.183 5.794-13.007 12.941-13.007 7.147 0 12.941 5.824 12.941 13.007z" fill="url(#zfe3dkfdra)"/>
        <path fill="#FFF" d="m17.842 26.099-5.18-5.208 1.726-1.735 3.454 3.471 7.77-7.81 1.726 1.736z"/>
    </g>
</svg>
