<svg width="25" height="25" viewBox="0 0 25 25" xmlns="http://www.w3.org/2000/svg">
    <defs>
        <linearGradient x1="50%" y1="0%" x2="50%" y2="100%" id="6aitvr083a">
            <stop stop-color="#FFB548" offset="0%"/>
            <stop stop-color="#FFC84E" offset="100%"/>
        </linearGradient>
        <linearGradient x1="50%" y1="0%" x2="50%" y2="100%" id="c1u9beeh0b">
            <stop stop-color="#FFB548" offset="0%"/>
            <stop stop-color="#FFC84E" offset="100%"/>
        </linearGradient>
    </defs>
    <g fill-rule="nonzero" fill="none">
        <path d="M19.038 15.625v-1.39h.296a.297.297 0 0 0 .296-.297V12.55a.297.297 0 0 0-.296-.297H16.62a.295.295 0 0 0-.231.111l-.552.695a.3.3 0 0 0 0 .372l.552.694c.056.07.14.112.23.112h1.238v1.389h1.182zM11.821 9.87h5.838a.593.593 0 0 0 .591-.595.593.593 0 0 0-.591-.595h-7.316c.542.33 1.04.73 1.478 1.19zM19.821 16.22h-6.143a8.505 8.505 0 0 1-.372 1.19h6.515c1.74.004 3.15 1.424 3.152 3.176.002 1.751-1.403 3.175-3.143 3.184l-10.056.039a.593.593 0 0 0-.59.596c0 .329.265.595.592.594h.002l10.056-.038c2.392-.011 4.325-1.969 4.322-4.377-.004-2.409-1.942-4.36-4.335-4.364zM15.046 8.432c.742 0 1.343-.605 1.343-1.352 0-.747-.73-2.07-1.343-2.07-.614 0-1.343 1.323-1.343 2.07 0 .359.141.703.393.956.252.254.594.396.95.396zM12.192 8.432c.356 0 .698-.142.95-.396.252-.253.393-.597.393-.956 0-.747-.73-2.07-1.343-2.07-.614 0-1.343 1.323-1.343 2.07 0 .747.601 1.352 1.343 1.352z" fill="#05A580"/>
        <path d="M19.52 21.64c0-1.007-.982-2.791-1.81-2.791-.828 0-1.81 1.784-1.81 2.79 0 1.007.81 1.823 1.81 1.823s1.81-.816 1.81-1.823zM13.863 23.462c1 0 1.81-.816 1.81-1.823 0-1.006-.982-2.79-1.81-2.79-.827 0-1.81 1.784-1.81 2.79 0 .484.19.947.53 1.289.34.342.8.534 1.28.534z" fill="#05A580"/>
        <path d="M6.623 8.233C2.97 8.233 0 11.224 0 14.9c0 4.175 5.97 9.71 6.224 9.944a.588.588 0 0 0 .797 0c.254-.233 6.224-5.769 6.224-9.944 0-3.676-2.97-6.667-6.622-6.667zm0 11.032c-2.395 0-4.336-1.954-4.336-4.365 0-2.41 1.941-4.365 4.336-4.365 2.394 0 4.335 1.955 4.335 4.365-.002 2.41-1.942 4.363-4.335 4.365z" fill="url(#6aitvr083a)"/>
        <path d="M20.498 9.795a.588.588 0 0 0 .726 0 15.97 15.97 0 0 0 1.85-1.758C24.353 6.607 25 5.305 25 4.167 25 1.865 23.147 0 20.861 0c-2.285 0-4.138 1.865-4.138 4.167 0 1.138.648 2.44 1.925 3.87a15.97 15.97 0 0 0 1.85 1.758zm.363-7.613c1.089 0 1.971.889 1.971 1.985a1.977 1.977 0 0 1-1.97 1.984 1.977 1.977 0 0 1-1.971-1.984 1.98 1.98 0 0 1 1.97-1.985z" fill="url(#c1u9beeh0b)"/>
    </g>
</svg>
