<svg width="23" height="23" viewBox="0 0 23 23" xmlns="http://www.w3.org/2000/svg">
    <path d="M16.018 10.43h1.643V6.3a10.26 10.26 0 0 0-1.554-1.283c.229-.141 2.784-1.813 4.48-2.594l-.637 1.24.735.357 1.379-2.68L19.306 0l-.368.714 1.68.816a28.56 28.56 0 0 0-5.258 3.029 10.333 10.333 0 0 0-1.472-.675l-.263.255 1.34 3.259c.184.444.077.953-.272 1.291l-1.234 1.2-2.054-3.593-2.61 2.537H7.59l.696 1.693-1.864 1.811-.987-2.399-2.468-.96 1.864-1.81 1.741.676V6.672l2.61-2.537-1.19-.643c-2.936.65-5.43 2.52-6.823 5.113L2.5 9.9c.366.356.476.892.277 1.358-.198.465-.665.769-1.184.769H.075a9.677 9.677 0 0 0-.066 1.597h1.563c.2 0 .39-.077.531-.214l.07-.069a1.607 1.607 0 0 1 2.225 0l.48.468c.297.286.462.675.461 1.08v.263c.001.405-.164.794-.46 1.08l-.963.935a.715.715 0 0 0-.22.516c0 .844-.704 1.527-1.572 1.528h-.07c.392.508.833.978 1.317 1.404l.003-.002c.356.314.736.604 1.134.867.952-4.909 3.264-9.472 6.685-13.2l.614.532c-3.395 3.697-5.662 8.24-6.549 13.12.557.304 1.142.556 1.748.754v.002c.263.086.529.161.798.226v-.977a.39.39 0 0 0-.12-.282l-.341-.331a1.173 1.173 0 0 1-.36-.847v-.866c0-.661.551-1.197 1.231-1.198h.481a.414.414 0 0 0 .29-.117l1.984-1.927c.23-.225.544-.352.871-.35h.892c.68 0 1.232.536 1.232 1.197v1.197c0 .661-.552 1.197-1.232 1.198a.406.406 0 0 0-.41.399v.467a.39.39 0 0 0 .12.282l.75.73c.233.224.362.53.362.847v.344a10.357 10.357 0 0 0 1.562-.658 1.175 1.175 0 0 1-.33-.815v-9.58c0-.66.552-1.196 1.232-1.197zm-2.054 3.193c0 .44-.368.797-.821.798h-.651l-.581.564a.828.828 0 0 1-.581.234h-1.062a.811.811 0 0 1-.822-.798v-.234c0-.212.086-.415.241-.564l.992-.964v-.234c0-.44.368-.798.821-.798h1.643c.453 0 .82.357.821.798v1.198z" fill="#CDCDCD" fill-rule="nonzero"/>
</svg>
