<svg width="22" height="22" viewBox="0 0 22 22" xmlns="http://www.w3.org/2000/svg">
    <path d="m14.261 14.345-1.626-2.936c-.6-1.074-1.781-1.741-3.082-1.741H5.57c-1.3 0-2.48.666-3.083 1.741L.874 14.32a.856.856 0 0 0-.043.09A3.02 3.02 0 0 0 0 16.477v4.664c0 .474.385.859.86.859h2.272a.86.86 0 0 0 .86-.86v-.43h7.142v.43c0 .475.385.86.86.86h2.272a.86.86 0 0 0 .859-.86v-4.683c0-.78-.3-1.51-.85-2.082-.004-.01-.008-.02-.014-.03zm-8.69-2.958h3.982c.669 0 1.29.337 1.58.857l.596 1.076H3.394l.596-1.074c.292-.522.913-.86 1.58-.86zm7.835 7.605H10.28l-.77-1.063a.859.859 0 0 0-.696-.355H6.345a.86.86 0 0 0-.709.374l-.715 1.044H1.72v-2.515c0-.793.748-1.438 1.668-1.438h8.35c.92 0 1.67.636 1.67 1.418v2.535zm-1.16-1.933a.86.86 0 1 1-1.719 0 .86.86 0 0 1 1.72 0zm-7.691 0a.86.86 0 1 1-1.719 0 .86.86 0 0 1 1.719 0zM1.719 8.207V6.809c0-.79.314-1.513.83-2.068a.872.872 0 0 1 .044-.09l1.614-2.91C4.81.666 5.99 0 7.29 0h3.982c.874 0 1.686.266 2.286.748a.86.86 0 0 1-1.077 1.34c-.296-.238-.725-.37-1.21-.37H7.29c-.669 0-1.29.338-1.582.86l-.596 1.074H7.22a.86.86 0 1 1 0 1.72H5.106c-.92 0-1.668.644-1.668 1.437v1.398a.86.86 0 1 1-1.72 0zm3.695-1.676a.86.86 0 1 1 0 1.719.86.86 0 0 1 0-1.719zm12.848 5.5a.86.86 0 1 1 0-1.718.86.86 0 0 1 0 1.718zM22 10.355v5.114a.86.86 0 0 1-.86.86h-2.272a.86.86 0 0 1-.86-.86v-.43h-.992a.86.86 0 1 1 0-1.719h3.265v-2.879c0-.781-.748-1.418-1.668-1.418h-6.11a.86.86 0 0 1 0-1.718h6.1l-.595-1.077c-.29-.52-.911-.857-1.58-.857h-3.982c-.668 0-1.29.337-1.581.86l-.612 1.117c-.241.386-.456.601-.854.601-.653 0-1.036-.7-.72-1.27l.684-1.285c.603-1.076 1.783-1.742 3.083-1.742h3.982c1.3 0 2.482.667 3.082 1.74l1.626 2.937.015.03A2.988 2.988 0 0 1 22 10.356z" fill="#CDCDCD" fill-rule="nonzero"/>
</svg>
