<?xml version="1.0" encoding="UTF-8"?>
<svg width="40px" height="40px" viewBox="0 0 40 40" version="1.1" xmlns="http://www.w3.org/2000/svg" xmlns:xlink="http://www.w3.org/1999/xlink">
    <title>4292476C-4C8F-4C0E-894F-5A0806378191</title>
    <g id="Page-1" stroke="none" stroke-width="1" fill="none" fill-rule="evenodd">
        <g id="Profile-#my-reservation-in-package-one-day-details-Copy" transform="translate(-554.000000, -554.000000)" fill-rule="nonzero">
            <g id="Group-4" transform="translate(498.000000, 132.000000)">
                <g id="Group" transform="translate(56.000000, 422.000000)">
                    <path d="M18.7530202,1.45850537 C19.4398167,1.9162606 20.5636441,1.9162606 21.2494249,1.45850537 L23.0630174,0.247248429 C23.7494232,-0.211135049 24.6718445,-0.0133163095 25.1132505,0.686313364 L26.2798122,2.53563194 C26.7212182,3.23486896 27.7472331,3.69403774 28.5595764,3.55590231 L30.7067625,3.19018501 C31.5193401,3.05189252 32.2829333,3.60891051 32.4025426,4.42837797 L32.7209799,6.59056271 C32.8417611,7.41018723 33.5925418,8.25054385 34.3909788,8.45723656 L36.4980087,9.00349585 C37.2966019,9.21097386 37.7680079,10.0335825 37.5462111,10.8313756 L36.9626178,12.9334058 C36.7410554,13.7311203 37.0876177,14.8056553 37.7333985,15.3207379 L39.443788,16.68458 C40.0894126,17.1996626 40.1873813,18.1427373 39.661991,18.7814272 L38.2733982,20.4663026 C37.7481641,21.1043642 37.6308205,22.2274312 38.0122265,22.9616144 L39.0206633,24.899437 C39.4022256,25.6340128 39.1112882,26.5363301 38.3730856,26.9045604 L36.4224619,27.8777909 C35.6842592,28.2462568 35.1230877,29.2245132 35.1744939,30.0512055 L35.3092595,32.2338868 C35.3614469,33.0601864 34.7292598,33.76602 33.9054323,33.8013588 L31.7310587,33.8938679 C30.9078561,33.9292852 29.9992629,34.5934976 29.7114506,35.3703229 L28.9550448,37.4187167 C28.6672325,38.1956991 27.80528,38.5821485 27.0390305,38.277371 L25.0132505,37.4724317 C24.2474698,37.1674186 23.1484861,37.4020682 22.5716896,37.9941109 L21.0502844,39.5561643 C20.4732535,40.1478143 19.5298947,40.1478143 18.9524732,39.5569496 L17.4286461,37.9938753 C16.851459,37.4023823 15.7524753,37.1678112 14.9862258,37.4725887 L12.9614615,38.277528 C12.1952901,38.5825411 11.3332594,38.1960917 11.0460721,37.4188738 L10.2878695,35.37048 C10.0004478,34.5938902 9.09185464,33.9294423 8.26826142,33.894025 L6.09466909,33.8015158 C5.2708415,33.7660985 4.63943566,33.0602649 4.69084187,32.2340438 L4.82685741,30.0513626 C4.87802925,29.2249059 4.31607649,28.2464138 3.5780301,27.877948 L1.62803137,26.9047175 C0.890063095,26.5364087 0.59826641,25.6343269 0.980063037,24.8995941 L1.98849988,22.9617714 C2.37006213,22.2275883 2.25271846,21.1045998 1.72670318,20.4670879 L0.338032204,18.7800136 C-0.187592454,18.1423447 -0.0891550182,17.1992699 0.556235187,16.6841873 L2.26701532,15.3203453 C2.91240553,14.8052627 3.25943655,13.7313559 3.03803045,12.9332487 L2.45303083,10.8303547 C2.23146847,10.0326402 2.70303067,9.2105812 3.50084265,9.00435968 L5.60943503,8.45692243 C6.40724701,8.25046532 7.15904339,7.4101087 7.27943394,6.59048418 L7.59763686,4.42829944 C7.71826178,3.60883198 8.48146441,3.05181398 9.29380763,3.19010648 L11.4412281,3.55582378 C12.2538057,3.69395921 13.2796644,3.23479043 13.7204454,2.53555341 L14.8864602,0.686234833 C15.3272412,-0.0133948402 16.2502875,-0.211213579 16.9372402,0.247169899 L18.7530202,1.45850537 Z" id="Path" fill="#CDCDCD"></path>
                    <path d="M32.9413704,20.021819 C32.9413704,27.2063537 27.1467648,33.0304233 19.9999725,33.0304233 C12.8535709,33.0304233 7.05896533,27.2063537 7.05896533,20.021819 C7.05896533,12.8394831 12.8533366,7.01525653 19.9999725,7.01525653 C27.1467648,7.01525653 32.9413704,12.8394831 32.9413704,20.021819 Z" id="Path" fill="#FFFFFF"></path>
                    <polygon id="Path" fill="#CDCDCD" points="17.8423958 26.0986002 12.6623992 20.8914676 14.3881793 19.1559399 17.8423958 22.6274664 25.6120001 14.8164926 27.3377803 16.5526484"></polygon>
                </g>
            </g>
        </g>
    </g>
</svg>