<svg width="20" height="20" viewBox="0 0 20 20" xmlns="http://www.w3.org/2000/svg">
    <path d="M3.75 0c.23 0 .417.187.417.417V2.5H6.25c.23 0 .417.187.417.417v1.666c0 .045-.008.09-.022.132l-.65 1.952h.255c.23 0 .417.186.417.416v6.25h4.166v-1.25c0-.23.187-.416.417-.416h5c.23 0 .417.186.417.416v1.25h2.083c.23 0 .417.187.417.417v5.833c0 .23-.187.417-.417.417H17.5v-4.583a.417.417 0 0 0-.417-.417h-2.5a.417.417 0 0 0-.416.417V20H.417A.417.417 0 0 1 0 19.583V13.75c0-.23.187-.417.417-.417h.416v-6.25c0-.23.187-.416.417-.416h.255l-.65-1.952a.415.415 0 0 1-.022-.132V2.917c0-.23.187-.417.417-.417h2.083V.417c0-.23.187-.417.417-.417zm0 15H2.083a.417.417 0 0 0-.416.417v1.666c0 .23.186.417.416.417H3.75c.23 0 .417-.187.417-.417v-1.666A.417.417 0 0 0 3.75 15zm4.167 0H6.25a.417.417 0 0 0-.417.417v1.666c0 .23.187.417.417.417h1.667c.23 0 .416-.187.416-.417v-1.666A.417.417 0 0 0 7.917 15zm4.166 0h-1.666a.417.417 0 0 0-.417.417v1.666c0 .23.187.417.417.417h1.666c.23 0 .417-.187.417-.417v-1.666a.417.417 0 0 0-.417-.417zm-7.5-6.667H2.917a.417.417 0 0 0-.417.417v1.667c0 .23.187.416.417.416h1.666c.23 0 .417-.186.417-.416V8.75a.417.417 0 0 0-.417-.417zm7.056-5.035.24.008a3.662 3.662 0 0 1 1.793.615l1.461.764.07-.042 2.362-1.11c.712-.345 1.437-.288 2.12.18.197.135.314.36.315.605a.731.731 0 0 1-.305.606l-8.256 4.198a.896.896 0 0 1-.448.105c-1.053 0-2.965-1.517-3.338-1.821a.416.416 0 0 1 .264-.74h.833c.082 0 .155.017.625.131.363.09 1.093.268 1.346.292l2.041-1.06-2.594-1.946a.415.415 0 0 1 .238-.75l1.233-.035zm-7.056.869H2.917a.417.417 0 0 0 0 .833h1.666a.417.417 0 0 0 0-.833z" fill="#CDCDCD" fill-rule="evenodd"/>
</svg>
