<svg width="17" height="15" viewBox="0 0 17 15" xmlns="http://www.w3.org/2000/svg">
    <path d="M15.597 3.092c0 1.351-.9 2.545-2.218 2.941.147-.47.221-.958.221-1.45A4.973 4.973 0 0 0 11.11.292C11.53.1 11.988 0 12.451 0c1.74.003 3.147 1.387 3.145 3.092zm-.637 3.825a1.423 1.423 0 0 0-1.063.125 2.87 2.87 0 0 1-1.181.341 4.268 4.268 0 0 1-.595.709c1.637.528 2.837 1.907 3.111 3.575h.586c.384.005.74-.196.927-.525.169-.31.256-.657.255-1.009v-.591a2.71 2.71 0 0 0-2.04-2.625zM5.89.292A3.255 3.255 0 0 0 4.548 0C2.991.001 1.67 1.117 1.437 2.626c-.231 1.509.697 2.957 2.184 3.407a4.837 4.837 0 0 1-.221-1.45c0-1.76.946-3.392 2.49-4.291zm-1.011 7.8a4.268 4.268 0 0 1-.595-.709 2.87 2.87 0 0 1-1.181-.341 1.423 1.423 0 0 0-1.063-.125A2.71 2.71 0 0 0 0 9.542v.591c-.001.352.086.699.255 1.009.185.326.537.528.918.525h.595c.274-1.668 1.474-3.047 3.111-3.575zm6.664 1.133a1.753 1.753 0 0 0-1.292.158 3.692 3.692 0 0 1-3.502 0 1.753 1.753 0 0 0-1.292-.158c-1.469.39-2.487 1.7-2.482 3.192v.725c0 .425.108.843.315 1.216.212.4.637.642 1.113.642h8.194c.476 0 .901-.242 1.113-.642.207-.373.315-.791.315-1.216v-.725c.005-1.492-1.013-2.801-2.482-3.192zm.782-4.642c0-2.07-1.713-3.75-3.825-3.75s-3.825 1.68-3.825 3.75c0 2.071 1.713 3.75 3.825 3.75s3.825-1.679 3.825-3.75z" fill="#05A580" fill-rule="nonzero"/>
</svg>
