<?xml version="1.0" encoding="UTF-8"?>
<svg width="24px" height="24px" viewBox="0 0 24 24" version="1.1" xmlns="http://www.w3.org/2000/svg" xmlns:xlink="http://www.w3.org/1999/xlink">
    <title>Grey@1</title>
    <g id="Grey" stroke="none" stroke-width="1" fill="none" fill-rule="evenodd">
        <g id="Group" transform="translate(-0.000000, 0.000000)" fill="#CDCDCD" fill-rule="nonzero">
            <rect id="Rectangle" x="16.4285714" y="23.2017312" width="1.23214286" height="1"></rect>
            <path d="M11.8608792,21.3229933 C11.6290543,21.0989242 11.4991061,20.7940384 11.5,20.4762945 L11.5,20.0086562 C11.500778,19.3476622 12.0519717,18.8120092 12.7321429,18.8112531 C12.9588665,18.811001 13.1425977,18.63245 13.1428571,18.4121187 L13.1428571,17.2147156 C13.1425977,16.9943843 12.9588665,16.8158333 12.7321429,16.8155797 L11.8402254,16.8155797 C11.73124,16.815286 11.6266672,16.8573956 11.5498376,16.9325151 L9.56675502,18.8596856 C9.33618476,19.0849734 9.02245349,19.2112568 8.69549141,19.2103875 L8.21428571,19.2103875 C7.98756203,19.2106396 7.80383086,19.3891905 7.80356984,19.6095218 L7.80356984,20.476292 C7.80326765,20.5822046 7.84659894,20.6838291 7.92389788,20.7584925 L8.26412076,21.0891255 C8.49594631,21.3131951 8.62589455,21.6180819 8.625,21.9358267 L8.625,23.0745171 C9.991474,23.2878486 11.3881113,23.2324365 12.7321429,22.9115645 L12.7321429,22.3349611 C12.7324466,22.2290484 12.6891153,22.127424 12.6118164,22.0527606 L11.8608792,21.3229933 Z" id="Path"></path>
            <path d="M11.5,12.658922 C11.5005896,12.8707389 11.4139717,13.0739851 11.2594472,13.2233718 L10.2678571,14.1870044 L10.2678571,14.4207749 L11.3298883,14.4207749 L11.9107143,13.8562767 C12.0644351,13.7061089 12.2735779,13.6219333 12.4915403,13.6225062 L13.1428571,13.6225062 L13.1428571,12.4251031 L11.5,12.4251031 L11.5,12.658922 Z" id="Path"></path>
            <path d="M19.3035714,5.24068427 C18.8501239,5.24118823 18.4826614,5.59829028 18.4821429,6.03895302 L18.4821429,10.4294312 L20.125,10.4294312 L20.125,6.03895302 C20.1244814,5.59829028 19.7570189,5.24118823 19.3035714,5.24068427 Z" id="Path"></path>
            <path d="M16.0178571,10.4294312 L17.6607143,10.4294312 L17.6607143,6.30015404 C17.1876121,5.82374742 16.6671726,5.39399299 16.1069991,5.01716901 C16.3358075,4.87582555 18.8909145,3.20367054 20.5877056,2.42346561 L19.9499751,3.66295247 L20.6846685,4.01999065 L22.0635596,1.33996345 L19.305779,0 L18.9383823,0.713979058 L20.6177632,1.52999482 C18.7579805,2.35258867 16.9950886,3.36803413 15.3597732,4.55865591 C14.8884795,4.29588635 14.3963265,4.07014668 13.8880161,3.88359346 L13.6247646,4.13941065 L14.9659008,7.39767629 C15.1493394,7.84237294 15.0420154,8.3505383 14.6931608,8.68906509 L13.4589644,9.888417 L11.405393,6.2962076 L8.7951117,8.83289366 L7.58878891,8.83289366 L8.28547893,10.5255607 L6.42142134,12.3370615 L5.43404263,9.938214 L2.96559844,8.978674 L4.82965551,7.16717269 L6.57142857,7.84421735 L6.57142857,6.6719063 L9.18171038,4.13522024 L7.9900773,3.49186552 C5.05451551,4.1417192 2.56052574,6.01122467 1.16830708,8.60549384 L2.49953116,9.89918464 C2.86616574,10.2554977 2.97583903,10.7913521 2.777412,11.2568868 C2.57898498,11.7224215 2.11153306,12.0259607 1.5930221,12.0259687 L0.0746021429,12.0259687 C0.0250604236,12.4232891 0,12.8231451 0,13.2233718 C0,13.3568468 0.00368513393,13.4898105 0.00909988839,13.6225062 L1.5723683,13.6225062 C1.77163928,13.6230462 1.96284772,13.546077 2.10335924,13.4087608 L2.17384808,13.3402568 C2.78833067,12.7444789 3.78309893,12.7444789 4.39758152,13.3402568 L4.87878464,13.8078951 C5.17461104,14.0938506 5.34043069,14.4829292 5.33928571,14.8884133 L5.33928571,15.1505398 C5.34043109,15.5560236 5.17461202,15.9451022 4.87878618,16.2310579 L3.91637531,17.166334 C3.77507513,17.3028839 3.69587289,17.4887013 3.69642857,17.6823539 C3.69544484,18.5258672 2.99204865,19.2094315 2.12406283,19.2103875 L2.05306984,19.2103875 C2.44558566,19.7176389 2.8867234,20.1875681 3.37055708,20.6138622 C3.37155973,20.6131068 3.37252491,20.6123275 3.37351525,20.6115722 C3.73045735,20.9260832 4.10960954,21.2159345 4.50819355,21.4790024 C5.46030096,16.5704041 7.77155885,12.0069727 11.1933181,8.27965001 L11.8066819,8.81053016 C8.41241925,12.5080094 6.1449064,17.0511123 5.25830467,21.930611 C5.81529642,22.2346108 6.40037605,22.4872196 7.00587085,22.6851246 L7.00568295,22.6873413 C7.26882143,22.7729713 7.5347846,22.8480769 7.80357246,22.9126582 L7.80357246,21.9358267 C7.80387623,21.8299141 7.76054494,21.7282896 7.683246,21.6536262 L7.34302312,21.3229933 C7.11119783,21.0989244 6.98124927,20.7940386 6.98214286,20.4762945 L6.98214286,19.6095218 C6.98292088,18.9485278 7.53411453,18.4128748 8.21428571,18.4121187 L8.69549141,18.4121187 C8.80447681,18.4124139 8.90904966,18.3703043 8.98587924,18.2951848 L10.9689593,16.3680144 C11.1995301,16.1427259 11.5132625,16.0164425 11.8402254,16.0173125 L12.7321429,16.0173125 C13.412314,16.0180685 13.9635077,16.5537215 13.9642857,17.2147156 L13.9642857,18.4121187 C13.9635077,19.0731128 13.412314,19.6087658 12.7321429,19.6095218 C12.5054192,19.609774 12.321688,19.7883249 12.3214286,20.0086562 L12.3214286,20.476292 C12.3211248,20.5822046 12.3644561,20.6838291 12.441755,20.7584925 L13.1926948,21.4882598 C13.4245194,21.7123299 13.5544667,22.0172167 13.5535714,22.3349611 L13.5535714,22.6791122 C14.0924509,22.5024849 14.6151859,22.2823694 15.116311,22.0210668 C14.9037211,21.7999857 14.7855432,21.5086462 14.7857143,21.2060594 L14.7857143,11.6268343 C14.7864923,10.9658403 15.337686,10.4301873 16.0178571,10.4294312 Z M13.9642857,13.6225062 C13.9637671,14.0631689 13.5963046,14.420271 13.1428571,14.4207749 L12.4915403,14.4207749 L11.9107143,14.9852732 C11.7569934,15.135441 11.5478506,15.2196166 11.3298883,15.2190466 L10.2678571,15.2190466 C9.81440965,15.2185397 9.44694716,14.8614377 9.44642558,14.4207749 L9.44642558,14.186956 C9.44583901,13.9751391 9.53245684,13.7718929 9.68698136,13.6225062 L10.6785714,12.6588736 L10.6785714,12.4251031 C10.67909,11.9844403 11.0465525,11.6273383 11.5,11.6268343 L13.1428571,11.6268343 C13.5963046,11.6273383 13.9637671,11.9844403 13.9642857,12.4251031 L13.9642857,13.6225062 Z" id="Shape"></path>
            <path d="M2.05357308,10.7801356 C2.05389914,10.6613731 2.00531665,10.5474204 1.91865538,10.4636829 L0.796737969,9.37339744 C0.53859486,9.97134653 0.341271687,10.5924058 0.207588348,11.2276999 L1.5930221,11.2276999 C1.84725473,11.2274145 2.05327777,11.0272002 2.05357308,10.7801356 L2.05357308,10.7801356 Z" id="Path"></path>
            <path d="M8.13577254,2.64582337 L8.13835491,2.65872289 L10.5325753,3.95134203 L7.39285714,7.00253725 L7.39285714,8.03462491 L8.4548883,8.03462491 L11.5946065,4.98342969 L13.6481779,8.57563908 L14.1122851,8.12456734 C14.2286046,8.01174446 14.2643958,7.84234078 14.2032321,7.69410441 L12.6609486,3.94715261 L13.7443379,2.89426057 C14.306268,2.35130552 14.6637807,1.64034169 14.7592915,0.875883927 C13.9726549,0.968701862 13.2410642,1.31613464 12.6823566,1.86222131 L11.5989185,2.91506396 L7.74325804,1.41626348 C7.59071913,1.35684408 7.41641213,1.39162381 7.30030627,1.5046463 L6.83614779,1.95566814 L8.12023214,2.64894161 C8.1254323,2.64794277 8.13057085,2.64680973 8.13577254,2.64582337 Z" id="Path"></path>
            <path d="M2.875,17.6823539 C2.87385462,17.2768701 3.0396737,16.8877915 3.33549953,16.6018358 L4.2979104,15.6665596 C4.43920995,15.5300104 4.51841214,15.344194 4.51786005,15.1505423 L4.51786005,14.8884157 C4.51841283,14.6947631 4.43921058,14.5089457 4.2979104,14.3723959 L3.81670728,13.9047601 C3.67589673,13.7678723 3.48488744,13.6909656 3.28571685,13.6909656 C3.08654626,13.6909656 2.89553698,13.7678723 2.75472643,13.9047601 L2.68423759,13.9732615 C2.38998455,14.2607463 1.98961677,14.4218894 1.5723683,14.4207749 L0.0744142411,14.4207749 C0.24828395,15.8347587 0.732766004,17.1959283 1.49505596,18.4121187 L2.12406489,18.4121187 C2.53860253,18.4116659 2.87453515,18.0852038 2.875,17.6823539 L2.875,17.6823539 Z" id="Path"></path>
            <polygon id="Path" points="4.4272433 8.68710983 6.06594196 9.3241283 6.72144196 10.9166246 7.32164955 10.3332897 6.66620089 8.7407934 5.02750223 8.10382483"></polygon>
            <path d="M22.5892857,11.2276999 L16.0178571,11.2276999 C15.7911335,11.227952 15.6074023,11.406503 15.6071429,11.6268343 L15.6071429,21.2060594 C15.6074023,21.4263907 15.7911335,21.6049416 16.0178571,21.6051937 L22.5892857,21.6051937 C22.8160094,21.6049416 22.9997406,21.4263907 23,21.2060594 L23,11.6268343 C22.9997406,11.406503 22.8160094,11.227952 22.5892857,11.2276999 L22.5892857,11.2276999 Z M17.6607143,20.806925 L16.8392857,20.806925 L16.8392857,12.0259687 L17.6607143,12.0259687 L17.6607143,20.806925 Z M19.7142857,20.806925 L18.8928571,20.806925 L18.8928571,12.0259687 L19.7142857,12.0259687 L19.7142857,20.806925 Z M21.7678571,20.806925 L20.9464286,20.806925 L20.9464286,12.0259687 L21.7678571,12.0259687 L21.7678571,20.806925 Z" id="Shape"></path>
            <rect id="Rectangle" x="21.3571429" y="23.2017312" width="1.23214286" height="1"></rect>
        </g>
    </g>
</svg>