<svg width="17" height="17" viewBox="0 0 17 17" xmlns="http://www.w3.org/2000/svg">
    <defs>
        <linearGradient x1="50%" y1="0%" x2="50%" y2="100%" id="bw9dh1c7ya">
            <stop stop-color="#FFB548" offset="0%"/>
            <stop stop-color="#FFC84E" offset="100%"/>
        </linearGradient>
    </defs>
    <path d="M15.455 3.864c0 2.202-3.323 3.863-7.728 3.863C3.323 7.727 0 6.066 0 3.864 0 1.66 3.323 0 7.727 0c4.405 0 7.728 1.661 7.728 3.864zm-6.182 11.59c-3.284 0-6.09-.85-7.728-2.279C1.592 15.362 4.891 17 9.273 17c4.381 0 7.657-1.63 7.727-3.794-1.615 1.399-4.35 2.249-7.727 2.249zm-1.546-3.09a14.48 14.48 0 0 1-5.803-1.082c.99 1.56 3.817 2.627 7.349 2.627 4.404 0 7.727-1.661 7.727-3.864a2.318 2.318 0 0 0-.44-1.329c-1.152 2.21-4.482 3.648-8.833 3.648zM8.5 9.273H6.955C3.925 9.157 1.46 8.33 0 7.04c.07 2.148 3.37 3.778 7.727 3.778 4.358 0 7.658-1.63 7.728-3.794-1.492 1.29-3.957 2.117-6.955 2.249z" fill="url(#bw9dh1c7ya)" fill-rule="nonzero"/>
</svg>
