<svg width="20" height="20" viewBox="0 0 20 20" xmlns="http://www.w3.org/2000/svg">
    <g fill="#CDCDCD" fill-rule="nonzero">
        <path d="M17.242 12.45c-.484.3-.942.533-1.35.7a2.22 2.22 0 0 1-.892.183c-.3 0-.608-.058-.892-.183-.725-.3-1.608-.8-2.466-1.483H3.683l1.234-2.833a.84.84 0 0 1 .758-.5h3.283a6.812 6.812 0 0 1-.516-1.667H5.675a2.51 2.51 0 0 0-2.292 1.5l-1.65 3.792c-.008.016 0 .033-.008.058C.708 12.533 0 13.575 0 14.792v3.125a2.084 2.084 0 0 0 4.167 0V17.5h10v.417a2.084 2.084 0 0 0 4.166 0v-3.125c0-.942-.425-1.784-1.091-2.342zM5 15.833H3.333A.836.836 0 0 1 2.5 15c0-.458.375-.833.833-.833H5c.458 0 .833.375.833.833a.836.836 0 0 1-.833.833zm10 0h-1.667A.836.836 0 0 1 12.5 15c0-.458.375-.833.833-.833H15c.458 0 .833.375.833.833a.836.836 0 0 1-.833.833z"/>
        <path d="M19.576 1.522 15.2.034a.614.614 0 0 0-.402 0l-4.375 1.488a.624.624 0 0 0-.424.592v3.348c0 4.087 4.562 6.073 4.756 6.156a.628.628 0 0 0 .488 0C15.438 11.535 20 9.548 20 5.462V2.114a.624.624 0 0 0-.424-.592zm-1.838 3.16-2.291 2.917a.833.833 0 0 1-1.197.118l-1.458-1.25a.833.833 0 1 1 1.084-1.265l.798.684 1.754-2.232a.832.832 0 1 1 1.31 1.028z"/>
    </g>
</svg>
