<svg width="24" height="19" viewBox="0 0 24 19" xmlns="http://www.w3.org/2000/svg">
    <g fill="#FFF" fill-rule="nonzero">
        <path d="M0 12.052h.468v6.775H14.91v-6.775h.518v-1.887H0v1.887zm5.036 1.284c-.06-.035-.064-.097-.009-.138l.463-.35a.253.253 0 0 1 .217-.03l2.466.932 1.374-1.265c.254-.234.603-.39.778-.35.067.015.13.05.184.099h.001c.05.054.086.115.102.18.041.171-.12.51-.359.758l-1.299 1.34.957 2.402a.238.238 0 0 1-.031.213l-.36.45c-.042.054-.105.05-.14-.008l-1.324-2.173-1.385 1.267c-.025.018-.103.096-.103.096s.002.046.007.083l.064.481-.37.466-.015-.02-.288-.524c-.034-.067-.006-.113.02-.136a1.717 1.717 0 0 1-.192.072s-.323.128-.406.047l-.002-.002c-.082-.08.049-.396.049-.396.034-.1.058-.157.073-.187-.024.025-.07.053-.14.02l-.537-.281-.022-.014.479-.361.494.062.086.007s.08-.076.097-.1l1.301-1.35-2.23-1.29zM1.385 9.76H2.93c-.038-1.154.2-1.545.2-1.545v1.306l2.997-5.073a2.31 2.31 0 0 0-.39-.138c.76-.253 1.293-1.009 1.427-1.788a.367.367 0 0 0 .08-.42c.311-.058.431-.136.431-.264 0-.14-.145-.221-.531-.28l-.034-.11c.5-.135.81-.322.81-.53 0-.411-1.223-.745-2.731-.745-1.508 0-2.731.334-2.731.746 0 .207.31.394.81.53l-.037.118c-.344.058-.475.138-.475.271 0 .121.107.198.382.255-.052.124-.067.283.076.43.134.78.669 1.536 1.43 1.787-.241.063-.477.165-.687.301-.75.433-2.515 1.955-2.573 5.15zm2.2-6.954c.387.136.915.2 1.605.2s1.218-.064 1.605-.2c-.237.704-.83 1.307-1.605 1.307S3.82 3.51 3.585 2.806zM15.373 4.15a.504.504 0 0 0-.577.41l-.567 3.571h-3.271a.743.743 0 0 0 .06-.576s-.022-.071-.059-.14c-.037-.068-.077-.115-.077-.115a.79.79 0 0 0-.893-.232l-.284.097c-.519.116-.973-.23-1.789-1.203C7.52 5.49 6.892 4.92 6.623 4.758L3.667 9.76H7.25V7.518c.59.603 1.34 1.194 2.28 1.194.053 0 .107-.003.161-.007v1.083c0 .09.076.164.169.164h5.105a.167.167 0 0 0 .169-.164v-.976a.542.542 0 0 0 .028-.099l.634-4.002a.495.495 0 0 0-.422-.562z"/>
        <ellipse cx="19.905" cy="1.966" rx="2.018" ry="1.966"/>
        <path d="M23.992 10.025c-.67-4.341-2.781-5.617-2.785-5.619a2.357 2.357 0 0 0-.799-.36s-.218-.052-.466-.052c-.248 0-.524.047-.524.047l-.005.001c-.278.065-.55.184-.789.348-.015.007-2.404 1.513-2.819 5.635-.042.419.221.808.648.875a.777.777 0 0 0 .898-.632c.155-.932.311-1.673.49-2.27v2.015c0 .205.057.48.13.655l-.01 7.43c0 .498.415.902.926.902a.914.914 0 0 0 .926-.902v-6.273c.036.002.072.004.11.004h.021v6.268c0 .498.414.903.925.903.511 0 .926-.405.926-.903v-7.411c.106-.098.175-.421.175-.693V8.044c.173.59.324 1.316.476 2.224a.77.77 0 0 0 .59.618s.11.035.29.013c.522-.064.718-.536.666-.874z"/>
    </g>
</svg>
