<svg width="23" height="24" viewBox="0 0 23 24" xmlns="http://www.w3.org/2000/svg">
    <g fill="#FFF" fill-rule="nonzero">
        <path d="M5.372 13.784c.028.165.058.33.094.492l.236 1.066c.346.059.699.059 1.045 0l.235-1.066c.036-.163.067-.327.095-.492-.284.02-.568.035-.853.035-.284 0-.57-.015-.852-.035zM7.959 13.685c-.04.261-.086.52-.141.778l-.128.587a3.449 3.449 0 0 0 1.626-1.636l-.584.13c-.255.057-.512.102-.773.141zM7.688 8.83l.129.588c.056.258.101.517.14.778.26.04.518.086.774.141l.584.13A3.45 3.45 0 0 0 7.688 8.83zM8.056 11.083c.042.571.042 1.144 0 1.715.164-.028.328-.058.49-.095l1.059-.237c.06-.348.06-.703 0-1.051l-1.059-.237a10.586 10.586 0 0 0-.49-.095z"/>
        <path d="M12.415 5.91H0v17.66c0 .237.192.43.428.43h11.987a.43.43 0 0 0 .428-.43V6.341a.43.43 0 0 0-.428-.431zM8.793 22.278H3.656v-.861h5.137v.861zm.856-1.723H2.8v-.86h6.85v.86zm-5.565-1.722v-.862h.856v.862h-.856zm1.712 0v-.862h.856v.862h-.856zm1.713 0v-.862h.856v.862h-.856zm-1.285-2.584c-2.364 0-4.28-1.929-4.28-4.307 0-2.38 1.916-4.307 4.28-4.307 2.365 0 4.281 1.928 4.281 4.307-.002 2.377-1.917 4.304-4.28 4.307z"/>
        <path d="m3.133 10.468.584-.13c.256-.056.513-.101.773-.14.039-.262.085-.521.14-.778l.129-.588a3.451 3.451 0 0 0-1.626 1.636zM10.505 3.585a.426.426 0 0 0-.538-.417L2.875 5.05h7.631V3.585zM7.077 10.098a10.66 10.66 0 0 0-.095-.493l-.235-1.066c-.346-.059-.7-.059-1.045 0l-.236 1.066a10.13 10.13 0 0 0-.094.493 11.653 11.653 0 0 1 1.705 0zM4.49 13.685c-.26-.039-.518-.086-.773-.141l-.584-.13a3.45 3.45 0 0 0 1.626 1.637l-.128-.587a11.092 11.092 0 0 1-.141-.779zM4.392 12.798a11.8 11.8 0 0 1 0-1.715c-.164.028-.327.059-.49.095l-1.058.237a3.16 3.16 0 0 0 0 1.051l1.058.237c.163.037.326.067.49.095zM5.26 10.97a10.98 10.98 0 0 0 0 1.94c.641.059 1.287.059 1.928 0a10.94 10.94 0 0 0 0-1.94 10.746 10.746 0 0 0-1.929 0zM13.7 14.472l.507-.064a.427.427 0 0 1 .361.13l.849.884.138-.393-.446-.938a.433.433 0 0 1-.018-.329l2.079-5.924-.26-.549-.546.263-.78 2.22-.445 1.264-.856 2.436a.43.43 0 0 1-.22.245l-.363.178v.577z"/>
        <path d="m14.926 0-.985 2.8-.157.447-.7 1.996c.381.233.615.65.616 1.099V9.02l1.413-.495.5-1.43a.43.43 0 0 1 .22-.245l1.092-.525a.427.427 0 0 1 .571.202l.523 1.1a.434.434 0 0 1 .017.329l-.502 1.43 1.34 2.165a.434.434 0 0 1 .04.37l-.428 1.219a.429.429 0 0 1-.685.18l-1.258-1.11-.585 1.669.446.938a.434.434 0 0 1 .017.329l-.428 1.218a.43.43 0 0 1-.711.158l-1.182-1.23-.4.049v3.407l3.315 1.177L23 2.869 14.926 0zm.328 3.77-.734-.258.285-.812.734.26-.285.81zm1.468.522-.734-.261.285-.812.734.26-.285.813zm1.468.52-.734-.26.285-.812.734.259-.285.814zm1.468.523-.735-.262.285-.812.734.261-.284.813zm.734.26.285-.812.734.26-.285.813-.734-.26z"/>
        <path d="m13.7 12.552.421-1.202-.421.018zM17.89 12.254l.15-.424-.87-1.405-.32.91zM14.748 9.565l-1.048.368v.573l.728-.03z"/>
    </g>
</svg>
