<svg width="24" height="24" viewBox="0 0 24 24" xmlns="http://www.w3.org/2000/svg">
    <g fill="#FFF" fill-rule="nonzero">
        <path d="M6.429 9.758a4.88 4.88 0 0 1-2.357.528 4.88 4.88 0 0 1-2.358-.528v9.56a6.36 6.36 0 0 1 .643-.032 4.88 4.88 0 0 1 2.357.527v-3.099c0-.685.68-1.25 1.715-1.528V9.758z"/>
        <ellipse cx="2.357" cy="21" rx="2.357" ry="1"/>
        <path d="M0 22.187v.956c0 .343.94.857 2.357.857 1.418 0 2.357-.514 2.357-.857v-.956a4.88 4.88 0 0 1-2.357.527A4.88 4.88 0 0 1 0 22.187zM12.652 3.913c.317.238.702.367 1.099.37a9.276 9.276 0 0 1-.876-2.025.429.429 0 1 1 .826-.23 7.936 7.936 0 0 0 1.081 2.258h.441a7.862 7.862 0 0 0 1.08-2.258.429.429 0 0 1 .827.23 9.27 9.27 0 0 1-.875 2.023 1.838 1.838 0 0 0 1.076-.368c1.004-.784 1.355-2.032 1.471-2.94A.393.393 0 0 0 18.62.58a.445.445 0 0 0-.486 0c-.3.188-.65.285-1.004.277a1.933 1.933 0 0 1-1.337-.523 1.128 1.128 0 0 0-1.603 0c-.362.34-.841.527-1.337.523-.353.008-.7-.088-.999-.275a.455.455 0 0 0-.489 0 .392.392 0 0 0-.182.392c.117.908.468 2.155 1.47 2.939z"/>
        <ellipse cx="6.643" cy="2.571" rx="2.357" ry="1"/>
        <ellipse cx="4.072" cy="8.571" rx="2.357" ry="1"/>
        <path d="M23.665 13.812c-1.394-5.919-5.118-8.34-6.25-8.953-.21.101-.43.176-.658.22l.796.744a.429.429 0 1 1-.585.627l-1.4-1.307h-.137v1.286a.429.429 0 0 1-.857 0V5.143h-.137l-1.4 1.307a.429.429 0 1 1-.585-.627l.791-.739a2.717 2.717 0 0 1-.661-.22c-1.066.6-2.027 1.37-2.845 2.28l-.01.01c-.313.343-.607.701-.882 1.075a.429.429 0 0 1-.69-.507c.28-.382.563-.726.845-1.042V3.757a4.88 4.88 0 0 1-2.357.529 4.88 4.88 0 0 1-2.357-.528v3.105c1.724.055 3 .771 3 1.708v6.461A6.36 6.36 0 0 1 7.929 15c1.832 0 3.214.737 3.214 1.714v4.715h7.796c.448 0 2.75-.086 4.077-1.758 1.037-1.311 1.256-3.282.65-5.859zm-6.521-.098c0 .947-.768 1.715-1.715 1.715v.428a.429.429 0 0 1-.857 0v-.428a1.714 1.714 0 0 1-1.714-1.715.429.429 0 0 1 .857 0c0 .474.384.857.857.857v-1.714a1.714 1.714 0 1 1 0-3.428V9a.429.429 0 0 1 .857 0v.429c.947 0 1.715.767 1.715 1.714a.429.429 0 0 1-.858 0 .857.857 0 0 0-.857-.857V12c.947 0 1.715.767 1.715 1.714zm5.2 5.423c-1.081 1.365-3.026 1.434-3.405 1.434a.429.429 0 1 1 0-.857c.31 0 1.897-.053 2.733-1.11a3.282 3.282 0 0 0 .603-1.91.434.434 0 0 1 .449-.408.429.429 0 0 1 .407.448 4.114 4.114 0 0 1-.787 2.403z"/>
        <path d="M13.715 11.143c0 .473.384.857.857.857v-1.714a.857.857 0 0 0-.857.857zM15.43 14.571a.857.857 0 1 0 0-1.714v1.714zM5.572 17.901v4.385c0 .343.94.857 2.357.857 1.417 0 2.357-.514 2.357-.857V17.9a4.88 4.88 0 0 1-2.357.528 4.88 4.88 0 0 1-2.357-.528z"/>
        <ellipse cx="7.929" cy="16.714" rx="2.357" ry="1"/>
        <path d="M20.444 3c0 .703-.763 1.277-1.715 1.286-.16 0-.32-.017-.475-.052a.322.322 0 0 1-.082.073c.069.043.146.09.227.137.262.172.566.382.9.643.035.026.065.052.099.082 2.134.158 2.811 1.05 2.833 1.075a.429.429 0 0 0 .711-.48c-.034-.051-.625-.9-2.353-1.29.441-.364.701-.902.712-1.474A2.211 2.211 0 0 0 19.659.999a6.572 6.572 0 0 1-.154.861c.518.15.89.603.939 1.14z"/>
    </g>
</svg>
