<svg width="24" height="24" viewBox="0 0 24 24" xmlns="http://www.w3.org/2000/svg">
    <g fill="#FFF" fill-rule="nonzero">
        <path d="M23.297 19.031a2.11 2.11 0 0 0-2.11-2.11h-9.89a2.11 2.11 0 0 0-2.11 2.11v2.157h14.11V19.03zM2.813 7.078h5.671v2.11c0 .388.315.703.704.703h.411a.702.702 0 0 0 .498-.206l2.606-2.607h6.255a.703.703 0 0 0 .663-.938 2.82 2.82 0 0 0-2.652-1.874H2.812L1.601 1.842a.703.703 0 0 0-.63-.389H.704A.703.703 0 0 0 0 2.156v2.11a2.815 2.815 0 0 0 2.813 2.812zM1.2 11.09l.206-.205v5.334c0 1.938 1.624 3.515 3.563 3.515h.412l-.206.206a.703.703 0 1 0 .994.995l1.406-1.407a.703.703 0 0 0 0-.994L6.17 17.128a.703.703 0 1 0-.994.994l.206.206h-.412c-1.163 0-2.157-.946-2.157-2.11v-5.333l.207.206a.703.703 0 1 0 .994-.994L2.607 8.69a.703.703 0 0 0-.995 0L.206 10.097a.703.703 0 1 0 .994.994zM23.297 13.406a2.09 2.09 0 0 0-1.109.323l-.111-.67a2.102 2.102 0 0 0-2.08-1.762h-7.509a2.102 2.102 0 0 0-2.08 1.763l-.112.669a2.09 2.09 0 0 0-1.108-.323.703.703 0 1 0 0 1.406c.387 0 .703.316.703.704h12.703c0-.388.315-.704.703-.704a.703.703 0 1 0 0-1.406z"/>
        <path d="M9.188 0a.703.703 0 0 0-.704.703V2.86h4.22L10.096.206A.703.703 0 0 0 9.599 0h-.412zM9.188 23.297c0 .389.314.703.703.703h2.812a.703.703 0 0 0 .703-.703v-.703H9.187v.703zM19.781 24h2.813a.703.703 0 0 0 .703-.703v-.703h-4.219v.703c0 .389.315.703.703.703zM17.672 8.484h-2.86a.703.703 0 0 0-.681.533l-.219.874h4.66l-.218-.874a.703.703 0 0 0-.682-.533z"/>
    </g>
</svg>
