<svg xmlns="http://www.w3.org/2000/svg" width="14" height="26" viewBox="0 0 14 26">
    <g fill="none" fill-rule="evenodd">
        <g fill="#FFF" fill-rule="nonzero">
            <g>
                <path d="M27.5 15.333h3.063c.262 0 .437-.173.437-.433v-3.467c0-.26-.175-.433-.438-.433h-3.5c-3.237 0-5.687 2.427-5.687 5.633v3.9h-3.938c-.262 0-.437.174-.437.434v3.466c0 .26.175.434.438.434h3.937v11.7c0 .26.175.433.438.433h3.5c.262 0 .437-.173.437-.433v-11.7h3.938c.175 0 .35-.174.437-.347L31 21.053c0-.086 0-.26-.087-.346-.088-.087-.175-.174-.35-.174H25.75v-3.466c0-.954.788-1.734 1.75-1.734z" transform="translate(-886 -1251) translate(869 1240)"/>
            </g>
        </g>
    </g>
</svg>
