<svg xmlns="http://www.w3.org/2000/svg" width="27" height="27" viewBox="0 0 27 27">
    <g fill="none" fill-rule="evenodd">
        <g fill="#FFF" fill-rule="nonzero">
            <g>
                <g>
                    <path d="M22.34 0H3.941C3.33 0 2.716.175 2.19.438c-.175 0-.263.088-.35.175C.7 1.314 0 2.541 0 3.943v18.396c0 2.19 1.752 3.943 3.942 3.943H22.34c2.19 0 3.943-1.752 3.943-3.943V3.943C26.282 1.752 24.53 0 22.339 0zM1.751 1.84v2.978c0 .263.175.438.438.438s.438-.175.438-.438V1.226c.263-.175.526-.262.876-.35v3.942c0 .263.175.438.438.438s.438-.175.438-.438V.876h.876v3.942c0 .263.176.438.438.438.263 0 .438-.175.438-.438V.876H22.34c1.665 0 3.067 1.402 3.067 3.066v3.942h-6.57c-.176 0-.351.088-.439.263-.087.176-.087.35.088.438 1.051 1.227 1.664 2.891 1.664 4.556 0 3.854-3.154 7.008-7.008 7.008-3.855 0-7.009-3.154-7.009-7.008 0-1.665.614-3.242 1.665-4.556.087-.087.175-.262.087-.438-.087-.175-.262-.263-.438-.263H.876V3.942c0-.788.35-1.577.876-2.102z" transform="translate(-1048 -1251) translate(1037 1240) translate(11 11)"/>
                    <path d="M18.835 6.132h3.504c.263 0 .438-.175.438-.438V2.19c0-.263-.175-.438-.438-.438h-3.504c-.263 0-.438.175-.438.438v3.504c0 .263.175.438.438.438zM13.14 19.273c3.417 0 6.133-2.716 6.133-6.132 0-3.417-2.716-6.133-6.132-6.133-3.417 0-6.133 2.716-6.133 6.133 0 3.416 2.716 6.132 6.133 6.132zm0-8.76c1.49 0 2.629 1.139 2.629 2.628 0 1.49-1.139 2.628-2.628 2.628-1.49 0-2.628-1.139-2.628-2.628 0-1.49 1.139-2.628 2.628-2.628z" transform="translate(-1048 -1251) translate(1037 1240) translate(11 11)"/>
                </g>
            </g>
        </g>
    </g>
</svg>
