<svg xmlns="http://www.w3.org/2000/svg" width="26" height="27" viewBox="0 0 26 27">
    <g fill="none" fill-rule="evenodd">
        <g fill="#FFF" fill-rule="nonzero">
            <g>
                <g>
                    <path d="M5.694 8.76H.438C.175 8.76 0 8.937 0 9.2v16.645c0 .262.175.438.438.438h5.256c.263 0 .438-.176.438-.438V9.199c0-.263-.175-.438-.438-.438zM20.062 7.884c-1.928 0-3.943.789-5.17 1.665v-.35c0-.263-.174-.438-.437-.438H9.199c-.263 0-.438.175-.438.438v16.645c0 .262.175.438.438.438h5.256c.263 0 .438-.176.438-.438V14.192c1.226-1.139 2.89-1.402 3.767-.438.438.438.613 1.139.613 2.015v10.075c0 .262.175.438.438.438h5.257c.262 0 .438-.176.438-.438v-11.39c-.088-5.693-3.417-6.57-5.344-6.57zM3.066 0C1.402 0 0 1.402 0 3.066c0 1.665 1.402 3.066 3.066 3.066 1.665 0 3.066-1.401 3.066-3.066C6.132 1.402 4.731 0 3.066 0z" transform="translate(-993 -1251) translate(982 1240) translate(11 11)"/>
                </g>
            </g>
        </g>
    </g>
</svg>
