<svg xmlns="http://www.w3.org/2000/svg" width="30" height="28" viewBox="0 0 30 28">
    <g fill="none" fill-rule="evenodd">
        <g fill="#FFF" fill-rule="nonzero" stroke="#000" stroke-width=".75">
            <g>
                <path d="M24.376 36.9h-.353c-1.66 0-2.724-.744-3.753-1.465-.711-.496-1.382-.966-2.173-1.096-.385-.063-.77-.095-1.14-.095-.669 0-1.196.102-1.58.177-.234.045-.436.084-.59.084-.16 0-.333-.035-.409-.29-.065-.221-.113-.434-.159-.642-.117-.532-.2-.86-.426-.894-2.631-.402-3.384-.951-3.552-1.34-.024-.055-.038-.111-.04-.166-.009-.15.097-.282.247-.306 4.044-.659 5.858-4.748 5.934-4.921.001-.005.003-.01.006-.014.248-.497.296-.928.144-1.281-.277-.647-1.183-.931-1.782-1.12-.146-.045-.285-.088-.395-.132-1.196-.467-1.295-.947-1.248-1.192.08-.417.643-.707 1.099-.707.124 0 .234.022.327.065.538.248 1.022.375 1.44.375.579 0 .831-.24.862-.272-.015-.27-.033-.553-.052-.845-.12-1.892-.27-4.243.336-5.584 1.813-4.021 5.657-4.334 6.792-4.334l.498-.005h.067c1.138 0 4.991.313 6.805 4.337.605 1.342.455 3.694.335 5.584l-.005.083c-.017.263-.033.519-.047.764.03.03.261.25.785.27h0c.399-.015.856-.141 1.359-.373.147-.068.31-.083.421-.083.17 0 .343.033.486.092l.009.003c.406.143.672.424.678.719.005.277-.209.693-1.258 1.103-.108.043-.248.086-.395.133-.6.188-1.504.472-1.782 1.119-.151.353-.103.784.145 1.28l.006.015c.076.173 1.887 4.261 5.933 4.92.15.025.257.157.249.306-.004.056-.018.113-.042.168-.167.386-.92.934-3.55 1.336-.216.032-.3.31-.428.891-.047.211-.094.42-.159.638-.056.19-.175.278-.376.278h-.033c-.14 0-.337-.025-.589-.074-.445-.086-.945-.165-1.58-.165-.372 0-.756.032-1.142.095-.789.13-1.46.598-2.17 1.095-1.03.722-2.095 1.466-3.755 1.466" transform="translate(-1103 -1250) translate(1094 1240)"/>
            </g>
        </g>
    </g>
</svg>
