<svg xmlns="http://www.w3.org/2000/svg" width="25" height="20" viewBox="0 0 25 20">
    <g fill="none" fill-rule="evenodd">
        <g fill="#FFF" fill-rule="nonzero">
            <g>
                <path d="M36.935 15.921c-.173-.174-.346-.174-.519-.087-.259.087-.605.262-.95.437.345-.524.605-1.136.691-1.66.086-.174 0-.349-.173-.436-.173-.088-.346-.088-.519 0-.864.524-2.075.96-2.507 1.048-.951-.786-2.162-1.223-3.286-1.223-1.47 0-2.853.611-3.977 1.66-1.038 1.047-1.643 2.445-1.643 4.017-4.236-.437-6.744-3.057-8.733-5.502-.086-.088-.259-.175-.345-.175-.173 0-.26.087-.346.175-1.21 2.008-.951 4.017-.692 4.978.173.699.432 1.223.778 1.747-.432-.175-.778-.35-1.124-.7-.086-.086-.346-.086-.432-.086-.173.087-.26.262-.26.436 0 2.533 1.73 4.192 3.113 5.066-.26-.088-.519-.088-.864-.262-.173-.088-.346 0-.433.087-.086.087-.173.35-.086.437.778 1.834 2.507 3.231 4.41 3.58-1.73 1.049-4.497 1.66-6.572 1.485-.173 0-.432.088-.432.262-.087.175 0 .437.173.524C14.8 33.214 17.567 34 20.247 34c4.238 0 8.474-1.921 11.414-5.328 2.594-2.882 3.977-6.55 3.718-9.781.432-.35.692-.96 1.037-1.572.173-.262.346-.612.52-.874.086-.174.086-.436 0-.524z" transform="translate(-938 -1254) translate(926 1240)"/>
            </g>
        </g>
    </g>
</svg>
