<?xml version="1.0" encoding="UTF-8"?>
<svg width="11px" height="16px" viewBox="0 0 11 16" version="1.1" xmlns="http://www.w3.org/2000/svg" xmlns:xlink="http://www.w3.org/1999/xlink">
    <title>Icons/Solid/24/arrow 2</title>
    <g id="Symbols" stroke="none" stroke-width="1" fill="none" fill-rule="evenodd">
        <g id="وجهات-سياحية" transform="translate(-10.000000, -179.000000)" fill="#05A580">
            <g id="Group" transform="translate(9.000000, 179.000000)">
                <g id="Icons/Solid/24/arrow-2" transform="translate(8.000000, 8.000000) scale(-1, 1) translate(-8.000000, -8.000000) ">
                    <path d="M5.8797975,0.000277324264 C5.39507188,-0.0103839104 4.95681145,0.287219606 4.78794687,0.7417054 C4.61908228,1.19619119 4.75669388,1.70776045 5.13078253,2.01619239 L12.0941754,7.98161672 L5.13078253,13.9448476 C4.78664234,14.1977806 4.6130825,14.6220984 4.68131395,15.0437049 C4.74954541,15.4653114 5.04808101,15.8132268 5.4544327,15.9447026 C5.8607844,16.0761784 6.30654052,15.96908 6.608809,15.6673494 L14.5812604,8.8462009 C14.8346368,8.6299732 14.9805659,8.3135961 14.9805659,7.98049847 C14.9805659,7.64740084 14.8346368,7.33102374 14.5812604,7.11479604 L6.608809,0.28698104 C6.40741277,0.108094892 6.14909386,0.00644295341 5.8797975,0 L5.8797975,0.000277324264 Z" id="svgexport-6-(81)"></path>
                </g>
            </g>
        </g>
    </g>
</svg>