<svg width="24" height="32" viewBox="0 0 24 32" xmlns="http://www.w3.org/2000/svg">
    <g fill="none" fill-rule="evenodd">
        <path d="M11.362 6.628 6.815 8.885a1.99 1.99 0 0 0-.918.984L.225 24.356c-.586 1.353.012 2.934 1.336 3.532l5.642 2.547h4.19l-.031-23.807z" fill="#FAA515" fill-rule="nonzero"/>
        <path d="M24 26.355v2.79C24 30.7 22.724 32 21.198 32H9.681c-1.526 0-2.74-1.3-2.74-2.854V12.718c0-.49.137-.955.443-1.333l3.463-4.275c.394-.486.955-.799 1.573-.799h6.04c.618 0 1.179.313 1.572.8l3.463 4.274c.306.378.505.843.505 1.333v13.637z" fill="#FAD207" fill-rule="nonzero"/>
        <g fill="#F8C201">
            <path d="m14.501 17.444-.016-.017a1.685 1.685 0 0 0-.025-.026l-.644-.657-.092.185a1.98 1.98 0 0 0-.681-.12h-.063c-1.115 0-2.023.925-2.023 2.061 0 .236.04.462.111.673l-.189.098.667.682.009.008.009.01c.365.365.865.59 1.416.59h.063c1.115 0 2.023-.924 2.023-2.06 0-.554-.215-1.057-.565-1.427zm-1.458 2.536h-.063c-.6 0-1.089-.498-1.089-1.11 0-.612.489-1.11 1.09-1.11h.062c.6 0 1.09.498 1.09 1.11 0 .612-.49 1.11-1.09 1.11zM20.346 17.012l-.623-.635-8.63 8.792.623.634a.461.461 0 0 0 .66 0l7.97-8.119a.482.482 0 0 0 0-.672zM20.468 22.324l-.514-.532.033.216a1.98 1.98 0 0 0-.843-.188h-.062c-1.116 0-2.024.924-2.024 2.061 0 .294.061.573.17.826L17 24.673l.62.63.067.07.015.014c.362.344.847.556 1.38.556h.062c1.116 0 2.023-.925 2.023-2.062 0-.62-.271-1.178-.699-1.557zm-1.324 2.667h-.062c-.601 0-1.09-.498-1.09-1.11 0-.612.489-1.11 1.09-1.11h.062c.6 0 1.09.498 1.09 1.11 0 .612-.49 1.11-1.09 1.11z"/>
        </g>
        <g fill="#F5F5F5" fill-rule="nonzero">
            <path d="M11.424 25.308a.461.461 0 0 1-.33-.14.482.482 0 0 1 0-.672l7.969-8.119a.46.46 0 0 1 .66 0 .482.482 0 0 1 0 .673l-7.969 8.119a.46.46 0 0 1-.33.14zM12.42 20.297h-.062c-1.116 0-2.023-.924-2.023-2.061s.907-2.062 2.023-2.062h.062c1.116 0 2.024.925 2.024 2.062 0 1.137-.908 2.061-2.024 2.061zm-.062-3.171c-.6 0-1.09.498-1.09 1.11 0 .612.49 1.11 1.09 1.11h.062c.6 0 1.09-.498 1.09-1.11 0-.612-.49-1.11-1.09-1.11h-.062zM18.521 25.308h-.062c-1.116 0-2.023-.925-2.023-2.061 0-1.137.907-2.062 2.023-2.062h.062c1.116 0 2.024.925 2.024 2.062 0 1.136-.908 2.061-2.024 2.061zm-.062-3.171c-.6 0-1.09.498-1.09 1.11 0 .612.49 1.11 1.09 1.11h.062c.601 0 1.09-.498 1.09-1.11 0-.612-.489-1.11-1.09-1.11h-.062z"/>
        </g>
        <path d="M16.454 10.18a.477.477 0 0 1-.13-.933c.054-.015.107-.033.16-.05 1.423-.496 2.38-1.86 2.38-3.393V.476c0-.263.209-.476.467-.476s.467.213.467.476v5.328c0 1.94-1.211 3.666-3.013 4.293a4.429 4.429 0 0 1-.2.064.457.457 0 0 1-.13.019z" fill="#E0A446" fill-rule="nonzero"/>
        <path d="M15.47 11.354c-.806 0-1.462-.669-1.462-1.49 0-.823.656-1.491 1.463-1.491.806 0 1.463.668 1.463 1.49s-.657 1.49-1.463 1.49z" fill="#F5F5F5" fill-rule="nonzero"/>
    </g>
</svg>
