<svg xmlns="http://www.w3.org/2000/svg" width="15.305" height="17.006" viewBox="0 0 15.305 17.006">
  <path id="Calendar" d="M4.38,17.006H4.371a4.381,4.381,0,0,1-3.179-1.174A4.37,4.37,0,0,1,.009,12.652L0,5.572A4.327,4.327,0,0,1,1.036,2.593,4.2,4.2,0,0,1,3.832,1.3V.663A.657.657,0,0,1,4.018.193.651.651,0,0,1,5.123.662v.6l4.987-.007v-.6A.654.654,0,0,1,10.3.186.652.652,0,0,1,11.4.654v.637a4.222,4.222,0,0,1,2.824,1.265A4.246,4.246,0,0,1,15.3,5.518l.009,7.164A4.025,4.025,0,0,1,10.945,17Zm6.71-4.938a.708.708,0,0,0-.688.724.705.705,0,1,0,.7-.724Zm-6.91,0h0a.723.723,0,0,0-.687.732.7.7,0,0,0,.689.68h.033a.688.688,0,0,0,.48-.225.7.7,0,0,0,.183-.506.691.691,0,0,0-.7-.679Zm3.459,0h0a.727.727,0,0,0-.687.732.7.7,0,0,0,.692.68h.031a.7.7,0,0,0,.663-.732.691.691,0,0,0-.7-.679ZM4.177,9.008h0a.723.723,0,0,0-.687.732.7.7,0,0,0,.69.68h.033a.686.686,0,0,0,.479-.225.7.7,0,0,0,.182-.506.691.691,0,0,0-.7-.679Zm3.46-.03h0a.724.724,0,0,0-.688.732.7.7,0,0,0,.693.68h.031a.7.7,0,0,0,.662-.732.692.692,0,0,0-.7-.679Zm3.461.005h0a.7.7,0,0,0-.687.713v.01a.692.692,0,0,0,.7.679h.016a.7.7,0,0,0-.024-1.4ZM3.833,2.6A2.61,2.61,0,0,0,1.293,5.57l0,.264L14,5.818v-.3a2.629,2.629,0,0,0-2.6-2.929v.654a.649.649,0,0,1-1.108.465.658.658,0,0,1-.184-.464V2.559l-4.987.007,0,.687a.65.65,0,0,1-1.109.465.658.658,0,0,1-.184-.464V2.6Z" fill="#888"/>
</svg>
