<svg id="fi-sr-world" xmlns="http://www.w3.org/2000/svg" width="15.305" height="15.273" viewBox="0 0 15.305 15.273">
  <path id="Path_7979" data-name="Path 7979" d="M6.377,14.814h-1.7a1.9,1.9,0,0,1-1.353-.561L.033,10.966C.015,11.184,0,11.4,0,11.625a7.658,7.658,0,0,0,7.015,7.62V15.452A.638.638,0,0,0,6.377,14.814Z" transform="translate(0 -3.972)" fill="#888"/>
  <path id="Path_7980" data-name="Path 7980" d="M17.38,3.478,16.238,4.62a1.6,1.6,0,0,1-1.127.467h-.879a.319.319,0,0,0-.319.319v.638a1.594,1.594,0,0,1-1.594,1.594A.319.319,0,0,0,12,7.956v.319a.638.638,0,0,0,.638.638h1.913a1.913,1.913,0,0,1,1.913,1.913v.613a.319.319,0,0,0,.093.225l1.674,1.675a7.62,7.62,0,0,0-.851-9.861Z" transform="translate(-4.347 -1.26)" fill="#888"/>
  <path id="Path_7981" data-name="Path 7981" d="M11.022,10.179V9.565a.638.638,0,0,0-.638-.638H8.471A1.913,1.913,0,0,1,6.558,7.015V6.7A1.594,1.594,0,0,1,8.153,5.1a.319.319,0,0,0,.319-.319V4.145a1.594,1.594,0,0,1,1.594-1.594h.879a.323.323,0,0,0,.225-.093L12.229,1.4A7.636,7.636,0,0,0,.5,5.476l3.9,3.9a.638.638,0,0,0,.452.187h1.7a1.913,1.913,0,0,1,1.913,1.913v3.794a7.628,7.628,0,0,0,4.772-2.212l-1.754-1.754a1.6,1.6,0,0,1-.467-1.127Z" transform="translate(-0.181 0.001)" fill="#888"/>
</svg>
