<svg width="40" height="46" viewBox="0 0 40 46" xmlns="http://www.w3.org/2000/svg">
    <g fill="none" fill-rule="evenodd">
        <path d="M20 0c11.046 0 20 8.954 20 20 0 9.135-6.124 16.84-14.49 19.231L23.58 46l-2.797-6.015c-.26.01-.52.015-.783.015C8.954 40 0 31.046 0 20S8.954 0 20 0z" fill="#05A580"/>
        <path d="m13.482 27.162 7.613 7.925a.935.935 0 0 0 1.452-.179l5.47-9.53a9.274 9.274 0 0 0 1.324-6.062c-.63-5.13-5.325-8.855-10.455-8.225-5.13.63-8.785 5.38-8.155 10.51a9.274 9.274 0 0 0 2.75 5.56zm5.983-11.356a4.693 4.693 0 0 1 5.223 4.081 4.693 4.693 0 0 1-4.08 5.224 4.693 4.693 0 0 1-5.225-4.081 4.693 4.693 0 0 1 4.082-5.224z" fill="#FFF" fill-rule="nonzero"/>
    </g>
</svg>
