<svg xmlns="http://www.w3.org/2000/svg" xmlns:xlink="http://www.w3.org/1999/xlink" width="95.852" height="100.728" viewBox="0 0 95.852 100.728">
  <defs>
    <filter id="Arrow_-_Right_2" x="0" y="0" width="95.852" height="100.728" filterUnits="userSpaceOnUse">
      <feOffset dy="8" input="SourceAlpha"/>
      <feGaussianBlur stdDeviation="12.5" result="blur"/>
      <feFlood flood-color="#7960da" flood-opacity="0.549"/>
      <feComposite operator="in" in2="blur"/>
      <feComposite in="SourceGraphic"/>
    </filter>
  </defs>
  <g id="Arrow_-_Right_2-2" data-name="Arrow - Right 2" transform="translate(37.068 29.362)">
    <g transform="matrix(1, 0, 0, 1, -37.07, -29.36)" filter="url(#Arrow_-_Right_2)">
      <path id="Arrow_-_Right_2-3" data-name="Arrow - Right 2" d="M56.3,44.757c-.029.031-.079.088-.144.162l-.234.267c-.089.1-.187.213-.289.326s-.207.228-.31.337a25.712,25.712,0,0,1-2.4,2.307c-.96.826-2.043,1.683-3.146,2.5s-2.223,1.58-3.26,2.229a22.661,22.661,0,0,1-2.755,1.513c-.117.054-.277.123-.462.2s-.394.151-.607.223-.43.138-.632.187a2.868,2.868,0,0,1-.539.088,3.089,3.089,0,0,1-.424-.033,2.928,2.928,0,0,1-.8-.24,3.168,3.168,0,0,1-.378-.207,3.064,3.064,0,0,1-.428-.374,3.33,3.33,0,0,1-.362-.455,3.58,3.58,0,0,1-.287-.524,3.787,3.787,0,0,1-.2-.581c-.033-.14-.066-.35-.1-.586s-.06-.5-.084-.744-.045-.475-.059-.645-.022-.28-.021-.287c-.029-.457-.044-.985-.044-1.571s.013-1.23.039-1.92.066-1.423.118-2.19.116-1.564.191-2.382c.072-.778.152-1.539.238-2.272s.178-1.436.274-2.1.195-1.288.3-1.862.2-1.1.3-1.557c.007-.007.043-.142.1-.351s.129-.492.213-.8.18-.629.279-.923a5.18,5.18,0,0,1,.293-.732,4.6,4.6,0,0,1,.6-.875,4.05,4.05,0,0,1,.746-.664,3.422,3.422,0,0,1,.841-.424,2.877,2.877,0,0,1,.891-.154h.1a2.875,2.875,0,0,1,.7.137c.257.078.527.179.772.281s.466.2.626.282a1.565,1.565,0,0,1,.257.141,19.585,19.585,0,0,1,2.362,1.47c.884.626,1.836,1.364,2.767,2.15s1.845,1.621,2.648,2.436a18.99,18.99,0,0,1,1.994,2.319l.092.121c.057.075.135.181.22.3s.178.253.264.386.165.263.223.377a3.272,3.272,0,0,1,.234.518,3.754,3.754,0,0,1,.15.562,4.226,4.226,0,0,1,.067.592,4.6,4.6,0,0,1-.014.607,5.1,5.1,0,0,1-.1.667,4.877,4.877,0,0,1-.189.635,4.655,4.655,0,0,1-.27.594,4.448,4.448,0,0,1-.348.544" fill="#7960da"/>
    </g>
  </g>
</svg>
