<svg id="waiting" xmlns="http://www.w3.org/2000/svg" width="86.765" height="86.765" viewBox="0 0 86.765 86.765">
  <path id="Path_7965" data-name="Path 7965" d="M62.542,386.589A2.54,2.54,0,0,1,60,384.047v-20.5a2.542,2.542,0,1,1,5.084,0v20.5A2.54,2.54,0,0,1,62.542,386.589Z" transform="translate(-49.832 -299.824)" fill="#028b02"/>
  <path id="Path_7966" data-name="Path 7966" d="M212.542,386.589A2.541,2.541,0,0,1,210,384.047v-20.5a2.542,2.542,0,1,1,5.084,0v20.5A2.54,2.54,0,0,1,212.542,386.589Z" transform="translate(-174.413 -299.824)" fill="#028b02"/>
  <path id="Path_7967" data-name="Path 7967" d="M43.213,150.924a5.1,5.1,0,0,1-5.084,5.084H10.168a5.1,5.1,0,0,1-5.084-5.084L0,110.084A5.164,5.164,0,0,1,5.084,105a5.1,5.1,0,0,1,5.084,5.084l4.474,35.757H38.129A5.1,5.1,0,0,1,43.213,150.924Z" transform="translate(0 -87.206)" fill="#029f02"/>
  <path id="Path_7968" data-name="Path 7968" d="M205.168,351.084a5.1,5.1,0,0,1-5.084,5.084H195V346h5.084A5.1,5.1,0,0,1,205.168,351.084Z" transform="translate(-161.955 -287.366)" fill="#028b02"/>
  <g id="Group_3511" data-name="Group 3511" transform="translate(25.419)">
    <path id="Path_7969" data-name="Path 7969" d="M165.252,7.626A7.626,7.626,0,1,1,157.626,0,7.616,7.616,0,0,1,165.252,7.626Z" transform="translate(-150)" fill="#f9c4b9"/>
    <path id="Path_7970" data-name="Path 7970" d="M185.926,153.215v28.131a5.084,5.084,0,1,1-10.168,0V158.3H155.084A5.1,5.1,0,0,1,150,153.215V127.626a7.626,7.626,0,0,1,15.252,0v20.5h15.59A5.1,5.1,0,0,1,185.926,153.215Z" transform="translate(-150 -99.665)" fill="#f9c4b9"/>
  </g>
  <g id="Group_3512" data-name="Group 3512" transform="translate(33.045)">
    <path id="Path_7971" data-name="Path 7971" d="M223.3,153.215v28.131a5.084,5.084,0,0,1-10.168,0V158.3H195V120a7.615,7.615,0,0,1,7.626,7.626v20.5h15.591A5.1,5.1,0,0,1,223.3,153.215Z" transform="translate(-195 -99.665)" fill="#ffb19e"/>
    <path id="Path_7972" data-name="Path 7972" d="M202.626,7.626A7.616,7.616,0,0,1,195,15.252V0A7.615,7.615,0,0,1,202.626,7.626Z" transform="translate(-195)" fill="#ffb19e"/>
  </g>
  <path id="Path_7973" data-name="Path 7973" d="M319.794,0a17.794,17.794,0,1,0,17.794,17.794A17.813,17.813,0,0,0,319.794,0Z" transform="translate(-250.822)" fill="#7960da"/>
  <path id="Path_7974" data-name="Path 7974" d="M424.793,17.794A17.813,17.813,0,0,1,407,35.587V0A17.813,17.813,0,0,1,424.793,17.794Z" transform="translate(-338.029)" fill="#7960da"/>
  <path id="Path_7975" data-name="Path 7975" d="M402.168,67.626a2.517,2.517,0,0,1-2.542,2.542h-5.084A2.517,2.517,0,0,1,392,67.626V62.542a2.542,2.542,0,0,1,5.084,0v2.542h2.542A2.517,2.517,0,0,1,402.168,67.626Z" transform="translate(-325.571 -49.832)" fill="#e1e4fb"/>
  <path id="Path_7976" data-name="Path 7976" d="M414.626,67.626a2.517,2.517,0,0,1-2.542,2.542H407V60a2.517,2.517,0,0,1,2.542,2.542v2.542h2.542A2.517,2.517,0,0,1,414.626,67.626Z" transform="translate(-338.029 -49.832)" fill="#c5c9f7"/>
</svg>
