<svg width="24" height="24" viewBox="0 0 24 24" xmlns="http://www.w3.org/2000/svg">
    <defs>
        <linearGradient x1="50%" y1="0%" x2="50%" y2="100%" id="oc9xqlamia">
            <stop stop-color="#FFB548" offset="0%"/>
            <stop stop-color="#FFC84E" offset="100%"/>
        </linearGradient>
        <linearGradient x1="50%" y1="0%" x2="50%" y2="100%" id="6098ltjulb">
            <stop stop-color="#FFB548" offset="0%"/>
            <stop stop-color="#FFC84E" offset="100%"/>
        </linearGradient>
        <linearGradient x1="50%" y1="0%" x2="50%" y2="100%" id="s9ys1unedc">
            <stop stop-color="#FFB548" offset="0%"/>
            <stop stop-color="#FFC84E" offset="100%"/>
        </linearGradient>
        <linearGradient x1="50%" y1="0%" x2="50%" y2="100%" id="2emalq65ud">
            <stop stop-color="#FFB548" offset="0%"/>
            <stop stop-color="#FFC84E" offset="100%"/>
        </linearGradient>
        <linearGradient x1="50%" y1="0%" x2="50%" y2="100%" id="p2fke6rgde">
            <stop stop-color="#FFB548" offset="0%"/>
            <stop stop-color="#FFC84E" offset="100%"/>
        </linearGradient>
        <linearGradient x1="50%" y1="0%" x2="50%" y2="100%" id="lf071oid7f">
            <stop stop-color="#FFB548" offset="0%"/>
            <stop stop-color="#FFC84E" offset="100%"/>
        </linearGradient>
    </defs>
    <g fill-rule="nonzero" fill="none">
        <path d="M18.277 15v-1.334h.284a.285.285 0 0 0 .283-.285v-1.334a.285.285 0 0 0-.283-.285h-2.607a.283.283 0 0 0-.222.107l-.53.666a.287.287 0 0 0 0 .358l.53.666a.283.283 0 0 0 .222.107h1.188V15h1.135z" fill="url(#oc9xqlamia)"/>
        <path d="M11.349 9.476h5.604a.57.57 0 0 0 .567-.572.57.57 0 0 0-.567-.57H9.929c.52.316.998.7 1.42 1.142z" fill="url(#6098ltjulb)"/>
        <path d="M19.028 15.57h-5.897c-.09.39-.21.772-.357 1.144h6.254a3.043 3.043 0 0 1 3.026 3.048 3.043 3.043 0 0 1-3.017 3.057l-9.654.037a.57.57 0 0 0-.567.573c0 .316.255.57.569.57h.002l9.654-.037c2.296-.01 4.152-1.89 4.148-4.202-.003-2.312-1.864-4.185-4.16-4.19z" fill="url(#s9ys1unedc)"/>
        <path d="M14.444 8.095c.712 0 1.29-.581 1.29-1.298 0-.717-.7-1.988-1.29-1.988-.59 0-1.29 1.271-1.29 1.988 0 .344.136.674.378.918.242.243.57.38.912.38z" fill="url(#2emalq65ud)"/>
        <path d="M11.704 8.095c.342 0 .67-.137.912-.38.242-.244.378-.574.378-.918 0-.717-.7-1.988-1.29-1.988-.589 0-1.289 1.271-1.289 1.988 0 .717.577 1.298 1.29 1.298z" fill="url(#p2fke6rgde)"/>
        <path d="M18.74 20.774c0-.967-.944-2.68-1.738-2.68-.795 0-1.738 1.713-1.738 2.68 0 .966.778 1.75 1.738 1.75s1.738-.784 1.738-1.75zM13.309 22.523c.96 0 1.737-.783 1.737-1.75 0-.966-.943-2.678-1.737-2.678-.795 0-1.738 1.712-1.738 2.679 0 .464.183.909.509 1.237.326.328.768.512 1.229.512z" fill="url(#lf071oid7f)"/>
        <path d="M6.358 7.904C2.852 7.904 0 10.775 0 14.304c0 4.008 5.731 9.322 5.975 9.547.217.199.549.199.765 0 .244-.225 5.976-5.539 5.976-9.547 0-3.529-2.853-6.4-6.358-6.4zm0 10.59c-2.299 0-4.162-1.875-4.162-4.19 0-2.314 1.863-4.19 4.162-4.19s4.162 1.876 4.162 4.19c-.003 2.313-1.865 4.188-4.162 4.19zM19.679 9.403c.204.16.491.16.696 0a15.331 15.331 0 0 0 1.777-1.688C23.378 6.343 24 5.093 24 4c0-2.21-1.779-4-3.973-4s-3.973 1.79-3.973 4c0 1.093.622 2.343 1.848 3.715.547.61 1.14 1.174 1.777 1.688zm.348-7.308c1.045 0 1.892.853 1.892 1.905a1.898 1.898 0 0 1-1.892 1.905A1.898 1.898 0 0 1 18.135 4a1.9 1.9 0 0 1 1.892-1.905z" fill="#05A580"/>
    </g>
</svg>
