<svg width="34" height="31" viewBox="0 0 34 31" xmlns="http://www.w3.org/2000/svg">
    <defs>
        <linearGradient x1="50%" y1="0%" x2="50%" y2="100%" id="74fw6wg1ca">
            <stop stop-color="#FFB548" offset="0%"/>
            <stop stop-color="#FFC84E" offset="100%"/>
        </linearGradient>
        <linearGradient x1="50%" y1="0%" x2="50%" y2="100%" id="ypj6mtxnfb">
            <stop stop-color="#FFB548" offset="0%"/>
            <stop stop-color="#FFC84E" offset="100%"/>
        </linearGradient>
    </defs>
    <g fill="none" fill-rule="evenodd">
        <rect fill="#FFFAF1" width="34" height="31" rx="4"/>
        <g fill-rule="nonzero">
            <path d="M15.63 17.672a.291.291 0 0 0-.21-.13h-.04c-5.082.006-9.206-4.197-9.212-9.388C6.165 5.145 7.573 2.317 9.955.546a.302.302 0 0 0 .08-.414A.29.29 0 0 0 9.79 0l.002.002C4.385.002.001 4.478 0 10c0 5.522 4.383 10 9.79 10 2.07 0 4.087-.67 5.762-1.914a.302.302 0 0 0 .079-.414z" fill="url(#74fw6wg1ca)" transform="translate(10 5)"/>
            <path d="M22.488 16.73a.29.29 0 0 0-.12-.063l-.003-.004-.79-.194-.423-.701a.289.289 0 0 0-.5 0l-.428.701-.777.194a.3.3 0 0 0-.167.487l.527.63-.062.828a.297.297 0 0 0 .265.323c.05.005.1-.004.146-.025l.753-.315.736.309a.29.29 0 0 0 .387-.15.304.304 0 0 0 .025-.142l-.062-.828.527-.63a.303.303 0 0 0-.034-.42zM23.757 9.117a.29.29 0 0 0-.12-.063l.004.01-1.35-.335-.728-1.204a.289.289 0 0 0-.5 0l-.73 1.208-1.337.334a.298.298 0 0 0-.17.47l.898 1.082-.105 1.416a.297.297 0 0 0 .265.324c.05.004.1-.005.147-.026l1.285-.537 1.27.531a.29.29 0 0 0 .386-.15.304.304 0 0 0 .025-.142l-.105-1.416.899-1.082a.303.303 0 0 0-.034-.42z" fill="#05A580"/>
            <path d="M16.368 8.946a.29.29 0 0 0-.121-.062l-.008-.005-.617-.15-.328-.543a.289.289 0 0 0-.5 0l-.322.553-.597.149a.298.298 0 0 0-.229.351.3.3 0 0 0 .06.13l.412.49-.047.63a.297.297 0 0 0 .264.323c.05.005.101-.004.147-.025l.58-.244.564.235a.29.29 0 0 0 .386-.15.304.304 0 0 0 .025-.142l-.047-.63.411-.49a.303.303 0 0 0-.033-.42z" fill="url(#ypj6mtxnfb)" transform="translate(10 5)"/>
        </g>
    </g>
</svg>
