<svg width="14" height="16" viewBox="0 0 14 16" xmlns="http://www.w3.org/2000/svg">
    <g fill="#FFF" fill-rule="nonzero">
        <path d="M12.505 14.138a.233.233 0 0 0-.17-.104h-.03c-4.066.004-7.366-3.358-7.37-7.51-.003-2.408 1.123-4.67 3.029-6.087a.242.242 0 0 0 .064-.331A.232.232 0 0 0 7.832 0l.002.002C3.508.002 0 3.582 0 8s3.506 8 7.832 8c1.656 0 3.27-.536 4.61-1.53a.242.242 0 0 0 .063-.332z"/>
        <path d="M9.99 9.384a.232.232 0 0 0-.096-.05l-.002-.004-.632-.154-.339-.562a.23.23 0 0 0-.4 0l-.342.562-.622.154a.24.24 0 0 0-.133.39l.421.504-.05.662a.237.237 0 0 0 .213.26.23.23 0 0 0 .117-.021l.602-.252.59.247c.117.054.255 0 .308-.12a.243.243 0 0 0 .02-.114l-.049-.662.421-.504a.242.242 0 0 0-.026-.336zM11.006 3.294a.232.232 0 0 0-.097-.05l.004.008-1.08-.27-.582-.962a.23.23 0 0 0-.4 0l-.585.966-1.07.267a.239.239 0 0 0-.136.377l.72.865-.085 1.133a.237.237 0 0 0 .212.259.23.23 0 0 0 .118-.02l1.028-.43 1.015.425c.118.054.256 0 .31-.12a.243.243 0 0 0 .02-.114l-.084-1.133.719-.865a.242.242 0 0 0-.027-.336zM13.094 7.157a.232.232 0 0 0-.097-.05l-.006-.004-.494-.12-.261-.434a.23.23 0 0 0-.4 0l-.259.442-.477.12a.239.239 0 0 0-.183.28.24.24 0 0 0 .048.104l.33.392-.039.504a.237.237 0 0 0 .212.259.23.23 0 0 0 .118-.02l.464-.196.45.189c.118.054.257 0 .31-.12a.243.243 0 0 0 .02-.114l-.038-.504.329-.392a.242.242 0 0 0-.027-.336z"/>
    </g>
</svg>
