<svg width="32" height="32" viewBox="0 0 32 32" xmlns="http://www.w3.org/2000/svg">
    <defs>
        <linearGradient x1="50%" y1="0%" x2="50%" y2="100%" id="ysrfk8ohha">
            <stop stop-color="#FFB548" offset="0%"/>
            <stop stop-color="#FFC84E" offset="100%"/>
        </linearGradient>
    </defs>
    <g fill-rule="nonzero" fill="none">
        <path d="M15.002 1.167c.55.366 1.449.366 1.998 0l1.45-.97a1.168 1.168 0 0 1 1.64.352l.934 1.48c.353.559 1.174.926 1.824.816l1.717-.293c.65-.11 1.261.335 1.357.99l.255 1.73c.096.656.697 1.328 1.336 1.494l1.685.437c.64.166 1.016.824.839 1.462l-.467 1.682c-.177.638.1 1.498.617 1.91l1.368 1.09c.517.413.595 1.167.175 1.678l-1.111 1.348c-.42.51-.514 1.409-.21 1.996l.808 1.55c.305.588.072 1.31-.519 1.605l-1.56.778c-.59.295-1.04 1.078-.998 1.739l.107 1.746a1.177 1.177 0 0 1-1.123 1.254l-1.74.074c-.658.028-1.385.56-1.615 1.181l-.605 1.639c-.23.622-.92.93-1.533.687l-1.62-.644c-.613-.244-1.492-.056-1.954.417l-1.217 1.25a1.17 1.17 0 0 1-1.678 0l-1.22-1.25c-.46-.473-1.34-.66-1.953-.417l-1.62.644a1.17 1.17 0 0 1-1.532-.687l-.607-1.639c-.23-.62-.957-1.152-1.615-1.18l-1.74-.075a1.178 1.178 0 0 1-1.122-1.254l.108-1.746c.041-.661-.408-1.444-.999-1.739l-1.56-.778a1.182 1.182 0 0 1-.518-1.604l.807-1.55c.305-.588.211-1.486-.21-1.996l-1.11-1.35a1.182 1.182 0 0 1 .174-1.677l1.369-1.09c.516-.413.794-1.272.616-1.91l-.468-1.683a1.18 1.18 0 0 1 .839-1.46l1.687-.438c.638-.166 1.24-.838 1.336-1.494l.254-1.73a1.173 1.173 0 0 1 1.357-.99l1.718.293c.65.11 1.47-.257 1.823-.817L11.91.55a1.168 1.168 0 0 1 1.64-.351l1.453.969z" fill="#05A580"/>
        <path d="M26.353 16.017c0 5.748-4.636 10.407-10.353 10.407S5.647 21.765 5.647 16.017c0-5.745 4.636-10.405 10.353-10.405s10.353 4.66 10.353 10.405z" fill="url(#ysrfk8ohha)"/>
    </g>
</svg>
