<svg width="20" height="23" viewBox="0 0 20 23" xmlns="http://www.w3.org/2000/svg">
    <defs>
        <linearGradient x1="50%" y1="0%" x2="50%" y2="100%" id="huuexy1nda">
            <stop stop-color="#FFB548" offset="0%"/>
            <stop stop-color="#FFC84E" offset="100%"/>
        </linearGradient>
        <linearGradient x1="50%" y1="0%" x2="50%" y2="100%" id="q5kb0939eb">
            <stop stop-color="#FFB548" offset="0%"/>
            <stop stop-color="#FFC84E" offset="100%"/>
        </linearGradient>
    </defs>
    <g fill-rule="nonzero" fill="none">
        <path d="M13.6 20.7a.1.1 0 0 1-.1.1h-2.453l.508-1.015a.397.397 0 0 0 .045-.176V19.2h.8a.4.4 0 0 0 .179-.042l1.021-.51V20.7zM0 20.7v-2.053l1.021.51a.4.4 0 0 0 .179.043H2V19.619a.398.398 0 0 0 .045.166l.508 1.015H.1a.1.1 0 0 1-.1-.1zm10.272-3.1H8.585a1.601 1.601 0 0 0-1.385-.8h-.8c-.571 0-1.1.305-1.385.8H3.328L1.088 16h11.424l-2.24 1.6zM2.8 18.966l.566-.566H4.8c0 .281.074.557.215.8H2.8v-.234zm2.8-.566a.8.8 0 0 1 .8-.8h.8a.8.8 0 1 1 0 1.6h-.8a.8.8 0 0 1-.8-.8zm3.2 0h1.434l.566.566v.234H8.585a1.59 1.59 0 0 0 .215-.8zm4.663-.579-1.157.579h-.94l-.35-.349 1.888-1.348.56 1.118zm-11.329-5.04a.603.603 0 0 1 .559-.381h8.214c.247 0 .468.152.559.382l.784 2.418H1.35l.784-2.418zM.696 16.704l1.887 1.348-.349.349h-.94l-1.157-.579.559-1.118zM2.4 22.3a.1.1 0 0 1-.1.1H.5a.1.1 0 0 1-.1-.1v-.7h2v.7zm1.047-1.5-.4-.8h7.506l-.4.8H3.447zm9.753 1.5a.1.1 0 0 1-.1.1h-1.8a.1.1 0 0 1-.1-.1v-.7h2v.7z" fill="#05A580"/>
        <path d="M4.8.8V0H0v.8h1.2v1.6H.5a.1.1 0 0 0-.1.1v.812l4 1.333V2.5a.1.1 0 0 0-.1-.1h-.7V.8h1.2zM3 2.4H1.8V.8H3v1.6z" fill="url(#huuexy1nda)" transform="translate(15.2 14.4)"/>
        <path d="M15.6 22.3a.1.1 0 0 0 .1.1h3.8a.1.1 0 0 0 .1-.1v-.812l-4-1.333V22.3zM15.6 19.312l4 1.333v-.757l-4-1.333z" fill="#05A580"/>
        <g>
            <path d="M13.303 6.139a.401.401 0 0 1-.072-.038A.598.598 0 0 0 12.9 6h-.935a.4.4 0 0 1-.214-.062L8.684 4h-.437l.91 1.821a.4.4 0 0 1-.26.567l-1.6.4a.4.4 0 0 1-.337-.068L5.467 5.6H5.33l.572 2h7.215l1.656-.73a.101.101 0 0 0 .002-.136l-1.472-.595z" fill="#05A580"/>
            <path d="M12.7 2H12V0h-.8v2H1.6V0H.8v2H.1a.1.1 0 0 0-.1.1v7.4a.1.1 0 0 0 .1.1h12.6a.1.1 0 0 0 .1-.1V2.1a.1.1 0 0 0-.1-.1zM.8 2.8h.8v.8H.8v-.8zm10.8 4.749a.4.4 0 0 1-.061.033l-1.776.784A.4.4 0 0 1 9.6 8.4H2a.4.4 0 0 1-.385-.29l-.8-2.8A.4.4 0 0 1 1.2 4.8H2a.4.4 0 0 1 .24.08l1.448 1.086.931-.233-.977-1.954A.4.4 0 0 1 4 3.2h1.2a.4.4 0 0 1 .214.062L8.48 5.2h.819c.261 0 .517.073.739.211l1.49.602c.024.01.049.023.071.038a.9.9 0 0 1 0 1.498zM12 3.6h-.8v-.8h.8v.8z" fill="url(#q5kb0939eb)" transform="translate(3.6)"/>
        </g>
    </g>
</svg>
